<?xml version="1.0" encoding="UTF-8" standalone="no"?><svg xmlns="http://www.w3.org/2000/svg" xmlns:xlink="http://www.w3.org/1999/xlink" height="570" version="1.1" width="799.66259765625"><defs/><g><g><rect fill="#C0C0C0" fill-opacity="0.2" height="118" stroke="none" transform="matrix(1 0 0 1 -550 -110)" width="150.89892578125" x="863" y="559"/></g><g><rect fill="#ffffff" height="118" stroke="none" transform="matrix(1 0 0 1 -550 -110)" width="150.89892578125" x="856" y="552"/></g><g><path d=" M 306 442 L 456.89892578125 442 L 456.89892578125 560 L 306 560 L 306 442 Z Z" fill="none" paint-order="fill stroke markers" stroke="#000000" stroke-dasharray="" stroke-miterlimit="10"/></g><g><path d=" M 306 467 L 457.89892578125 467" fill="none" paint-order="fill stroke markers" stroke="#000000" stroke-dasharray="" stroke-miterlimit="10"/></g><g><path d=" M 306 550 L 457.89892578125 550" fill="none" paint-order="fill stroke markers" stroke="#000000" stroke-dasharray="" stroke-miterlimit="10"/></g><g><g><path fill="none" stroke="none"/><text dominant-baseline="central" fill="#000000" font-family="Arial" font-size="13px" font-style="normal" font-weight="bold" stroke="none" text-anchor="middle" text-decoration="undefined" transform="matrix(1 0 0 1 -550 -110)" x="931.949462890625" y="565.5">User</text></g></g><g><g><path fill="none" stroke="none"/><text dominant-baseline="central" fill="#000000" font-family="Arial" font-size="13px" font-style="normal" font-weight="normal" stroke="none" text-anchor="start" text-decoration="undefined" transform="matrix(1 0 0 1 -550 -110)" x="861" y="588.5">-id: int</text></g></g><g><g><path fill="none" stroke="none"/><text dominant-baseline="central" fill="#000000" font-family="Arial" font-size="13px" font-style="normal" font-weight="normal" stroke="none" text-anchor="start" text-decoration="undefined" transform="matrix(1 0 0 1 -550 -110)" x="861" y="603.5">-name: String</text></g></g><g><g><path fill="none" stroke="none"/><text dominant-baseline="central" fill="#000000" font-family="Arial" font-size="13px" font-style="normal" font-weight="normal" stroke="none" text-anchor="start" text-decoration="undefined" transform="matrix(1 0 0 1 -550 -110)" x="861" y="618.5">-surname: String</text></g></g><g><g><path fill="none" stroke="none"/><text dominant-baseline="central" fill="#000000" font-family="Arial" font-size="13px" font-style="normal" font-weight="normal" stroke="none" text-anchor="start" text-decoration="undefined" transform="matrix(1 0 0 1 -550 -110)" x="861" y="633.5">-email: String</text></g></g><g><g><path fill="none" stroke="none"/><text dominant-baseline="central" fill="#000000" font-family="Arial" font-size="13px" font-style="normal" font-weight="normal" stroke="none" text-anchor="start" text-decoration="undefined" transform="matrix(1 0 0 1 -550 -110)" x="861" y="648.5">-githubUsername: String</text></g></g><g><rect fill="#C0C0C0" fill-opacity="0.2" height="45" stroke="none" transform="matrix(1 0 0 1 -550 -110)" width="66.341796875" x="567" y="599"/></g><g><rect fill="#ffffff" height="45" stroke="none" transform="matrix(1 0 0 1 -550 -110)" width="66.341796875" x="560" y="592"/></g><g><path d=" M 10 482 L 76.341796875 482 L 76.341796875 527 L 10 527 L 10 482 Z Z" fill="none" paint-order="fill stroke markers" stroke="#000000" stroke-dasharray="" stroke-miterlimit="10"/></g><g><path d=" M 10 507 L 77.341796875 507" fill="none" paint-order="fill stroke markers" stroke="#000000" stroke-dasharray="" stroke-miterlimit="10"/></g><g><path d=" M 10 517 L 77.341796875 517" fill="none" paint-order="fill stroke markers" stroke="#000000" stroke-dasharray="" stroke-miterlimit="10"/></g><g><g><path fill="none" stroke="none"/><text dominant-baseline="central" fill="#000000" font-family="Arial" font-size="13px" font-style="normal" font-weight="bold" stroke="none" text-anchor="middle" text-decoration="undefined" transform="matrix(1 0 0 1 -550 -110)" x="593.6708984375" y="605.5">Educator</text></g></g><g><rect fill="#C0C0C0" fill-opacity="0.2" height="48" stroke="none" transform="matrix(1 0 0 1 -550 -110)" width="74.3818359375" x="903" y="391"/></g><g><rect fill="#ffffff" height="48" stroke="none" transform="matrix(1 0 0 1 -550 -110)" width="74.3818359375" x="896" y="384"/></g><g><path d=" M 346 274 L 420.3818359375 274 L 420.3818359375 322 L 346 322 L 346 274 Z Z" fill="none" paint-order="fill stroke markers" stroke="#000000" stroke-dasharray="" stroke-miterlimit="10"/></g><g><path d=" M 346 299 L 421.3818359375 299" fill="none" paint-order="fill stroke markers" stroke="#000000" stroke-dasharray="" stroke-miterlimit="10"/></g><g><path d=" M 346 309 L 421.3818359375 309" fill="none" paint-order="fill stroke markers" stroke="#000000" stroke-dasharray="" stroke-miterlimit="10"/></g><g><g><path fill="none" stroke="none"/><text dominant-baseline="central" fill="#000000" font-family="Arial" font-size="13px" font-style="normal" font-weight="bold" stroke="none" text-anchor="middle" text-decoration="undefined" transform="matrix(1 0 0 1 -550 -110)" x="933.69091796875" y="397.5">Student</text></g></g><g><path d=" M 383 323 L 382 441" fill="none" paint-order="fill stroke markers" stroke="#000000" stroke-dasharray="" stroke-miterlimit="10"/></g><g><path d=" M 373.75350933411164 420.6040349162532 L 382 441 L 390.5909757487201 420.7467253095974" fill="#FFFFFF" paint-order="stroke fill markers" stroke="none"/></g><g><path d=" M 373.75350933411164 420.6040349162532 L 382 441 L 390.5909757487201 420.7467253095974 L 373.75350933411164 420.6040349162532" fill="none" paint-order="fill stroke markers" stroke="#000000" stroke-dasharray="" stroke-miterlimit="10"/></g><g><path d=" M 77 504 L 305 502" fill="none" paint-order="fill stroke markers" stroke="#000000" stroke-dasharray="" stroke-miterlimit="10"/></g><g><path d=" M 284.74928057201817 510.5969973042428 L 305 502 L 284.60158387689535 493.7595740602404" fill="#FFFFFF" paint-order="stroke fill markers" stroke="none"/></g><g><path d=" M 284.74928057201817 510.5969973042428 L 305 502 L 284.60158387689535 493.7595740602404 L 284.74928057201817 510.5969973042428" fill="none" paint-order="fill stroke markers" stroke="#000000" stroke-dasharray="" stroke-miterlimit="10"/></g><g><rect fill="#C0C0C0" fill-opacity="0.2" height="103" stroke="none" transform="matrix(1 0 0 1 -550 -110)" width="167.5361328125" x="567" y="127"/></g><g><rect fill="#ffffff" height="103" stroke="none" transform="matrix(1 0 0 1 -550 -110)" width="167.5361328125" x="560" y="120"/></g><g><path d=" M 10 10 L 177.5361328125 10 L 177.5361328125 113 L 10 113 L 10 10 Z Z" fill="none" paint-order="fill stroke markers" stroke="#000000" stroke-dasharray="" stroke-miterlimit="10"/></g><g><path d=" M 10 35 L 178.5361328125 35" fill="none" paint-order="fill stroke markers" stroke="#000000" stroke-dasharray="" stroke-miterlimit="10"/></g><g><path d=" M 10 103 L 178.5361328125 103" fill="none" paint-order="fill stroke markers" stroke="#000000" stroke-dasharray="" stroke-miterlimit="10"/></g><g><g><path fill="none" stroke="none"/><text dominant-baseline="central" fill="#000000" font-family="Arial" font-size="13px" font-style="normal" font-weight="bold" stroke="none" text-anchor="middle" text-decoration="undefined" transform="matrix(1 0 0 1 -550 -110)" x="644.26806640625" y="133.5">Tournament</text></g></g><g><g><path fill="none" stroke="none"/><text dominant-baseline="central" fill="#000000" font-family="Arial" font-size="13px" font-style="normal" font-weight="normal" stroke="none" text-anchor="start" text-decoration="undefined" transform="matrix(1 0 0 1 -550 -110)" x="565" y="156.5">-id: int</text></g></g><g><g><path fill="none" stroke="none"/><text dominant-baseline="central" fill="#000000" font-family="Arial" font-size="13px" font-style="normal" font-weight="normal" stroke="none" text-anchor="start" text-decoration="undefined" transform="matrix(1 0 0 1 -550 -110)" x="565" y="171.5">-name: String</text></g></g><g><g><path fill="none" stroke="none"/><text dominant-baseline="central" fill="#000000" font-family="Arial" font-size="13px" font-style="normal" font-weight="normal" stroke="none" text-anchor="start" text-decoration="undefined" transform="matrix(1 0 0 1 -550 -110)" x="565" y="186.5">-description: String</text></g></g><g><g><path fill="none" stroke="none"/><text dominant-baseline="central" fill="#000000" font-family="Arial" font-size="13px" font-style="normal" font-weight="normal" stroke="none" text-anchor="start" text-decoration="undefined" transform="matrix(1 0 0 1 -550 -110)" x="565" y="201.5">-subscriptionDeadline: date</text></g></g><g><rect fill="#C0C0C0" fill-opacity="0.2" height="148" stroke="none" transform="matrix(1 0 0 1 -550 -110)" width="167.5361328125" x="903" y="127"/></g><g><rect fill="#ffffff" height="148" stroke="none" transform="matrix(1 0 0 1 -550 -110)" width="167.5361328125" x="896" y="120"/></g><g><path d=" M 346 10 L 513.5361328125 10 L 513.5361328125 158 L 346 158 L 346 10 Z Z" fill="none" paint-order="fill stroke markers" stroke="#000000" stroke-dasharray="" stroke-miterlimit="10"/></g><g><path d=" M 346 35 L 514.5361328125 35" fill="none" paint-order="fill stroke markers" stroke="#000000" stroke-dasharray="" stroke-miterlimit="10"/></g><g><path d=" M 346 148 L 514.5361328125 148" fill="none" paint-order="fill stroke markers" stroke="#000000" stroke-dasharray="" stroke-miterlimit="10"/></g><g><g><path fill="none" stroke="none"/><text dominant-baseline="central" fill="#000000" font-family="Arial" font-size="13px" font-style="normal" font-weight="bold" stroke="none" text-anchor="middle" text-decoration="undefined" transform="matrix(1 0 0 1 -550 -110)" x="980.26806640625" y="133.5">Battle</text></g></g><g><g><path fill="none" stroke="none"/><text dominant-baseline="central" fill="#000000" font-family="Arial" font-size="13px" font-style="normal" font-weight="normal" stroke="none" text-anchor="start" text-decoration="undefined" transform="matrix(1 0 0 1 -550 -110)" x="901" y="156.5">-id: int</text></g></g><g><g><path fill="none" stroke="none"/><text dominant-baseline="central" fill="#000000" font-family="Arial" font-size="13px" font-style="normal" font-weight="normal" stroke="none" text-anchor="start" text-decoration="undefined" transform="matrix(1 0 0 1 -550 -110)" x="901" y="171.5">-name: String</text></g></g><g><g><path fill="none" stroke="none"/><text dominant-baseline="central" fill="#000000" font-family="Arial" font-size="13px" font-style="normal" font-weight="normal" stroke="none" text-anchor="start" text-decoration="undefined" transform="matrix(1 0 0 1 -550 -110)" x="901" y="186.5">-description: String</text></g></g><g><g><path fill="none" stroke="none"/><text dominant-baseline="central" fill="#000000" font-family="Arial" font-size="13px" font-style="normal" font-weight="normal" stroke="none" text-anchor="start" text-decoration="undefined" transform="matrix(1 0 0 1 -550 -110)" x="901" y="201.5">-subscriptionDeadline: date</text></g></g><g><g><path fill="none" stroke="none"/><text dominant-baseline="central" fill="#000000" font-family="Arial" font-size="13px" font-style="normal" font-weight="normal" stroke="none" text-anchor="start" text-decoration="undefined" transform="matrix(1 0 0 1 -550 -110)" x="901" y="216.5">-minStudentsPerGroup: int</text></g></g><g><g><path fill="none" stroke="none"/><text dominant-baseline="central" fill="#000000" font-family="Arial" font-size="13px" font-style="normal" font-weight="normal" stroke="none" text-anchor="start" text-decoration="undefined" transform="matrix(1 0 0 1 -550 -110)" x="901" y="231.5">-maxStudentsPerGroup: int</text></g></g><g><g><path fill="none" stroke="none"/><text dominant-baseline="central" fill="#000000" font-family="Arial" font-size="13px" font-style="normal" font-weight="normal" stroke="none" text-anchor="start" text-decoration="undefined" transform="matrix(1 0 0 1 -550 -110)" x="901" y="246.5">-submissionDeadline: date</text></g></g><g><rect fill="#C0C0C0" fill-opacity="0.2" height="88" stroke="none" transform="matrix(1 0 0 1 -550 -110)" width="130.66259765625" x="1215" y="383"/></g><g><rect fill="#ffffff" height="88" stroke="none" transform="matrix(1 0 0 1 -550 -110)" width="130.66259765625" x="1208" y="376"/></g><g><path d=" M 658 266 L 788.66259765625 266 L 788.66259765625 354 L 658 354 L 658 266 Z Z" fill="none" paint-order="fill stroke markers" stroke="#000000" stroke-dasharray="" stroke-miterlimit="10"/></g><g><path d=" M 658 291 L 789.66259765625 291" fill="none" paint-order="fill stroke markers" stroke="#000000" stroke-dasharray="" stroke-miterlimit="10"/></g><g><path d=" M 658 344 L 789.66259765625 344" fill="none" paint-order="fill stroke markers" stroke="#000000" stroke-dasharray="" stroke-miterlimit="10"/></g><g><g><path fill="none" stroke="none"/><text dominant-baseline="central" fill="#000000" font-family="Arial" font-size="13px" font-style="normal" font-weight="bold" stroke="none" text-anchor="middle" text-decoration="undefined" transform="matrix(1 0 0 1 -550 -110)" x="1273.831298828125" y="389.5">Team</text></g></g><g><g><path fill="none" stroke="none"/><text dominant-baseline="central" fill="#000000" font-family="Arial" font-size="13px" font-style="normal" font-weight="normal" stroke="none" text-anchor="start" text-decoration="undefined" transform="matrix(1 0 0 1 -550 -110)" x="1213" y="412.5">-id: int</text></g></g><g><g><path fill="none" stroke="none"/><text dominant-baseline="central" fill="#000000" font-family="Arial" font-size="13px" font-style="normal" font-weight="normal" stroke="none" text-anchor="start" text-decoration="undefined" transform="matrix(1 0 0 1 -550 -110)" x="1213" y="427.5">-studentsNumber: int</text></g></g><g><g><path fill="none" stroke="none"/><text dominant-baseline="central" fill="#000000" font-family="Arial" font-size="13px" font-style="normal" font-weight="normal" stroke="none" text-anchor="start" text-decoration="undefined" transform="matrix(1 0 0 1 -550 -110)" x="1213" y="442.5">-score: int</text></g></g><g><rect fill="#C0C0C0" fill-opacity="0.2" height="45" stroke="none" transform="matrix(1 0 0 1 -550 -110)" width="124.83544921875" x="1207" y="183"/></g><g><rect fill="#ffffff" height="45" stroke="none" transform="matrix(1 0 0 1 -550 -110)" width="124.83544921875" x="1200" y="176"/></g><g><path d=" M 650 66 L 774.83544921875 66 L 774.83544921875 111 L 650 111 L 650 66 Z Z" fill="none" paint-order="fill stroke markers" stroke="#000000" stroke-dasharray="" stroke-miterlimit="10"/></g><g><path d=" M 650 91 L 775.83544921875 91" fill="none" paint-order="fill stroke markers" stroke="#000000" stroke-dasharray="" stroke-miterlimit="10"/></g><g><path d=" M 650 101 L 775.83544921875 101" fill="none" paint-order="fill stroke markers" stroke="#000000" stroke-dasharray="" stroke-miterlimit="10"/></g><g><g><path fill="none" stroke="none"/><text dominant-baseline="central" fill="#000000" font-family="Arial" font-size="13px" font-style="normal" font-weight="bold" stroke="none" text-anchor="middle" text-decoration="undefined" transform="matrix(1 0 0 1 -550 -110)" x="1262.917724609375" y="189.5">GitHub Repository</text></g></g><g><rect fill="#C0C0C0" fill-opacity="0.2" height="88" stroke="none" transform="matrix(1 0 0 1 -550 -110)" width="88.76806640625" x="727" y="479"/></g><g><rect fill="#ffffff" height="88" stroke="none" transform="matrix(1 0 0 1 -550 -110)" width="88.76806640625" x="720" y="472"/></g><g><path d=" M 170 362 L 258.76806640625 362 L 258.76806640625 450 L 170 450 L 170 362 Z Z" fill="none" paint-order="fill stroke markers" stroke="#000000" stroke-dasharray="" stroke-miterlimit="10"/></g><g><path d=" M 170 387 L 259.76806640625 387" fill="none" paint-order="fill stroke markers" stroke="#000000" stroke-dasharray="" stroke-miterlimit="10"/></g><g><path d=" M 170 440 L 259.76806640625 440" fill="none" paint-order="fill stroke markers" stroke="#000000" stroke-dasharray="" stroke-miterlimit="10"/></g><g><g><path fill="none" stroke="none"/><text dominant-baseline="central" fill="#000000" font-family="Arial" font-size="13px" font-style="normal" font-weight="bold" stroke="none" text-anchor="middle" text-decoration="undefined" transform="matrix(1 0 0 1 -550 -110)" x="764.884033203125" y="485.5">Rank</text></g></g><g><g><path fill="none" stroke="none"/><text dominant-baseline="central" fill="#000000" font-family="Arial" font-size="13px" font-style="normal" font-weight="normal" stroke="none" text-anchor="start" text-decoration="undefined" transform="matrix(1 0 0 1 -550 -110)" x="725" y="508.5">-studentId: int</text></g></g><g><g><path fill="none" stroke="none"/><text dominant-baseline="central" fill="#000000" font-family="Arial" font-size="13px" font-style="normal" font-weight="normal" stroke="none" text-anchor="start" text-decoration="undefined" transform="matrix(1 0 0 1 -550 -110)" x="725" y="523.5">-score: int</text></g></g><g><g><path fill="none" stroke="none"/><text dominant-baseline="central" fill="#000000" font-family="Arial" font-size="13px" font-style="normal" font-weight="normal" stroke="none" text-anchor="start" text-decoration="undefined" transform="matrix(1 0 0 1 -550 -110)" x="725" y="538.5">-position: int</text></g></g><g><path d=" M 198 361 L 112 114" fill="none" paint-order="fill stroke markers" stroke="#000000" stroke-dasharray="" stroke-miterlimit="10"/></g><g><path d=" M 119.31710387356281 122.21340312559249 L 112 114 L 111.36622072091734 124.98172681436785 L 119.23397841308758 134.7766589306121" fill="#000000" paint-order="stroke fill markers" stroke="none"/></g><g><path d=" M 119.31710387356281 122.21340312559249 L 112 114 L 111.36622072091734 124.98172681436785 L 119.23397841308758 134.7766589306121 L 119.31710387356281 122.21340312559249" fill="none" paint-order="fill stroke markers" stroke="#000000" stroke-dasharray="" stroke-miterlimit="10"/></g><g><rect fill="#ffffff" height="13" stroke="none" transform="matrix(1 0 0 1 -550 -110)" width="28.5517578125" x="664" y="303"/></g><g><g><path fill="none" stroke="none"/><text dominant-baseline="central" fill="#000000" font-family="Arial" font-size="13px" font-style="normal" font-weight="normal" stroke="none" text-anchor="middle" text-decoration="undefined" transform="matrix(1 0 0 1 -550 -110)" x="678.27587890625" y="309.5">+has</text></g></g><g><rect fill="#ffffff" height="13" stroke="none" transform="matrix(1 0 0 1 -550 -110)" width="19.5126953125" x="743" y="440"/></g><g><g><path fill="none" stroke="none"/><text dominant-baseline="central" fill="#000000" font-family="Arial" font-size="13px" font-style="normal" font-weight="normal" stroke="none" text-anchor="middle" text-decoration="undefined" transform="matrix(1 0 0 1 -550 -110)" x="752.75634765625" y="446.5">0..*</text></g></g><g><rect fill="#ffffff" height="13" stroke="none" transform="matrix(1 0 0 1 -550 -110)" width="7.22998046875" x="677" y="234"/></g><g><g><path fill="none" stroke="none"/><text dominant-baseline="central" fill="#000000" font-family="Arial" font-size="13px" font-style="normal" font-weight="normal" stroke="none" text-anchor="middle" text-decoration="undefined" transform="matrix(1 0 0 1 -550 -110)" x="680.614990234375" y="240.5">1</text></g></g><g><path d=" M 345 78 L 179 67" fill="none" paint-order="fill stroke markers" stroke="#000000" stroke-dasharray="" stroke-miterlimit="10"/></g><g><path d=" M 189.418769150476 63.471650614084496 L 179 67 L 188.862102095095 71.8722625407425 L 200.95185685134027 68.45464111665507" fill="#000000" paint-order="stroke fill markers" stroke="none"/></g><g><path d=" M 189.418769150476 63.471650614084496 L 179 67 L 188.862102095095 71.8722625407425 L 200.95185685134027 68.45464111665507 L 189.418769150476 63.471650614084496" fill="none" paint-order="fill stroke markers" stroke="#000000" stroke-dasharray="" stroke-miterlimit="10"/></g><g><rect fill="#ffffff" height="13" stroke="none" transform="matrix(1 0 0 1 -550 -110)" width="28.5517578125" x="797" y="190"/></g><g><g><path fill="none" stroke="none"/><text dominant-baseline="central" fill="#000000" font-family="Arial" font-size="13px" font-style="normal" font-weight="normal" stroke="none" text-anchor="middle" text-decoration="undefined" transform="matrix(1 0 0 1 -550 -110)" x="811.27587890625" y="196.5">+has</text></g></g><g><rect fill="#ffffff" height="13" stroke="none" transform="matrix(1 0 0 1 -550 -110)" width="19.5126953125" x="865" y="168"/></g><g><g><path fill="none" stroke="none"/><text dominant-baseline="central" fill="#000000" font-family="Arial" font-size="13px" font-style="normal" font-weight="normal" stroke="none" text-anchor="middle" text-decoration="undefined" transform="matrix(1 0 0 1 -550 -110)" x="874.75634765625" y="174.5">1..*</text></g></g><g><rect fill="#ffffff" height="13" stroke="none" transform="matrix(1 0 0 1 -550 -110)" width="7.22998046875" x="748" y="159"/></g><g><g><path fill="none" stroke="none"/><text dominant-baseline="central" fill="#000000" font-family="Arial" font-size="13px" font-style="normal" font-weight="normal" stroke="none" text-anchor="middle" text-decoration="undefined" transform="matrix(1 0 0 1 -550 -110)" x="751.614990234375" y="165.5">1</text></g></g><g><path d=" M 87 114 L 46 481" fill="none" paint-order="fill stroke markers" stroke="#000000" stroke-dasharray="" stroke-miterlimit="10"/></g><g><rect fill="#ffffff" height="13" stroke="none" transform="matrix(1 0 0 1 -550 -110)" width="54.57080078125" x="603" y="402"/></g><g><g><path fill="none" stroke="none"/><text dominant-baseline="central" fill="#000000" font-family="Arial" font-size="13px" font-style="normal" font-weight="normal" stroke="none" text-anchor="middle" text-decoration="undefined" transform="matrix(1 0 0 1 -550 -110)" x="630.285400390625" y="408.5">+manage</text></g></g><g><rect fill="#ffffff" height="13" stroke="none" transform="matrix(1 0 0 1 -550 -110)" width="19.5126953125" x="613" y="238"/></g><g><g><path fill="none" stroke="none"/><text dominant-baseline="central" fill="#000000" font-family="Arial" font-size="13px" font-style="normal" font-weight="normal" stroke="none" text-anchor="middle" text-decoration="undefined" transform="matrix(1 0 0 1 -550 -110)" x="622.75634765625" y="244.5">0..*</text></g></g><g><rect fill="#ffffff" height="13" stroke="none" transform="matrix(1 0 0 1 -550 -110)" width="19.5126953125" x="576" y="562"/></g><g><g><path fill="none" stroke="none"/><text dominant-baseline="central" fill="#000000" font-family="Arial" font-size="13px" font-style="normal" font-weight="normal" stroke="none" text-anchor="middle" text-decoration="undefined" transform="matrix(1 0 0 1 -550 -110)" x="585.75634765625" y="568.5">1..*</text></g></g><g><path d=" M 158 114 L 352 273" fill="none" paint-order="fill stroke markers" stroke="#000000" stroke-dasharray="" stroke-miterlimit="10"/></g><g><rect fill="#ffffff" height="13" stroke="none" transform="matrix(1 0 0 1 -550 -110)" width="63.22900390625" x="848" y="335"/></g><g><g><path fill="none" stroke="none"/><text dominant-baseline="central" fill="#000000" font-family="Arial" font-size="13px" font-style="normal" font-weight="normal" stroke="none" text-anchor="middle" text-decoration="undefined" transform="matrix(1 0 0 1 -550 -110)" x="879.614501953125" y="341.5">+subscribe</text></g></g><g><rect fill="#ffffff" height="13" stroke="none" transform="matrix(1 0 0 1 -550 -110)" width="19.5126953125" x="707" y="241"/></g><g><g><path fill="none" stroke="none"/><text dominant-baseline="central" fill="#000000" font-family="Arial" font-size="13px" font-style="normal" font-weight="normal" stroke="none" text-anchor="middle" text-decoration="undefined" transform="matrix(1 0 0 1 -550 -110)" x="716.75634765625" y="247.5">0..*</text></g></g><g><rect fill="#ffffff" height="13" stroke="none" transform="matrix(1 0 0 1 -550 -110)" width="19.5126953125" x="868" y="372"/></g><g><g><path fill="none" stroke="none"/><text dominant-baseline="central" fill="#000000" font-family="Arial" font-size="13px" font-style="normal" font-weight="normal" stroke="none" text-anchor="middle" text-decoration="undefined" transform="matrix(1 0 0 1 -550 -110)" x="877.75634765625" y="378.5">0..*</text></g></g><g><path d=" M 515 150 L 664 265" fill="none" paint-order="fill stroke markers" stroke="#000000" stroke-dasharray="" stroke-miterlimit="10"/></g><g><rect fill="#ffffff" height="13" stroke="none" transform="matrix(1 0 0 1 -550 -110)" width="57.45263671875" x="1120" y="299"/></g><g><g><path fill="none" stroke="none"/><text dominant-baseline="central" fill="#000000" font-family="Arial" font-size="13px" font-style="normal" font-weight="normal" stroke="none" text-anchor="middle" text-decoration="undefined" transform="matrix(1 0 0 1 -550 -110)" x="1148.726318359375" y="305.5">+compete</text></g></g><g><rect fill="#ffffff" height="13" stroke="none" transform="matrix(1 0 0 1 -550 -110)" width="7.22998046875" x="1071" y="277"/></g><g><g><path fill="none" stroke="none"/><text dominant-baseline="central" fill="#000000" font-family="Arial" font-size="13px" font-style="normal" font-weight="normal" stroke="none" text-anchor="middle" text-decoration="undefined" transform="matrix(1 0 0 1 -550 -110)" x="1074.614990234375" y="283.5">1</text></g></g><g><rect fill="#ffffff" height="13" stroke="none" transform="matrix(1 0 0 1 -550 -110)" width="19.5126953125" x="1180" y="365"/></g><g><g><path fill="none" stroke="none"/><text dominant-baseline="central" fill="#000000" font-family="Arial" font-size="13px" font-style="normal" font-weight="normal" stroke="none" text-anchor="middle" text-decoration="undefined" transform="matrix(1 0 0 1 -550 -110)" x="1189.75634765625" y="371.5">0..*</text></g></g><g><path d=" M 421 299 L 657 308" fill="none" paint-order="fill stroke markers" stroke="#000000" stroke-dasharray="" stroke-miterlimit="10"/></g><g><rect fill="#ffffff" height="13" stroke="none" transform="matrix(1 0 0 1 -550 -110)" width="27.828125" x="1076" y="392"/></g><g><g><path fill="none" stroke="none"/><text dominant-baseline="central" fill="#000000" font-family="Arial" font-size="13px" font-style="normal" font-weight="normal" stroke="none" text-anchor="middle" text-decoration="undefined" transform="matrix(1 0 0 1 -550 -110)" x="1089.9140625" y="398.5">+join</text></g></g><g><rect fill="#ffffff" height="13" stroke="none" transform="matrix(1 0 0 1 -550 -110)" width="19.5126953125" x="983" y="416"/></g><g><g><path fill="none" stroke="none"/><text dominant-baseline="central" fill="#000000" font-family="Arial" font-size="13px" font-style="normal" font-weight="normal" stroke="none" text-anchor="middle" text-decoration="undefined" transform="matrix(1 0 0 1 -550 -110)" x="992.75634765625" y="422.5">1..*</text></g></g><g><rect fill="#ffffff" height="13" stroke="none" transform="matrix(1 0 0 1 -550 -110)" width="19.5126953125" x="1175" y="423"/></g><g><g><path fill="none" stroke="none"/><text dominant-baseline="central" fill="#000000" font-family="Arial" font-size="13px" font-style="normal" font-weight="normal" stroke="none" text-anchor="middle" text-decoration="undefined" transform="matrix(1 0 0 1 -550 -110)" x="1184.75634765625" y="429.5">1..*</text></g></g><g><path d=" M 260 377 L 345 322" fill="none" paint-order="fill stroke markers" stroke="#000000" stroke-dasharray="" stroke-miterlimit="10"/></g><g><rect fill="#ffffff" height="13" stroke="none" transform="matrix(1 0 0 1 -550 -110)" width="28.5517578125" x="830" y="440"/></g><g><g><path fill="none" stroke="none"/><text dominant-baseline="central" fill="#000000" font-family="Arial" font-size="13px" font-style="normal" font-weight="normal" stroke="none" text-anchor="middle" text-decoration="undefined" transform="matrix(1 0 0 1 -550 -110)" x="844.27587890625" y="446.5">+has</text></g></g><g><rect fill="#ffffff" height="13" stroke="none" transform="matrix(1 0 0 1 -550 -110)" width="19.5126953125" x="825" y="479"/></g><g><g><path fill="none" stroke="none"/><text dominant-baseline="central" fill="#000000" font-family="Arial" font-size="13px" font-style="normal" font-weight="normal" stroke="none" text-anchor="middle" text-decoration="undefined" transform="matrix(1 0 0 1 -550 -110)" x="834.75634765625" y="485.5">0..*</text></g></g><g><rect fill="#ffffff" height="13" stroke="none" transform="matrix(1 0 0 1 -550 -110)" width="7.22998046875" x="880" y="448"/></g><g><g><path fill="none" stroke="none"/><text dominant-baseline="central" fill="#000000" font-family="Arial" font-size="13px" font-style="normal" font-weight="normal" stroke="none" text-anchor="middle" text-decoration="undefined" transform="matrix(1 0 0 1 -550 -110)" x="883.614990234375" y="454.5">1</text></g></g><g><path d=" M 515 85 L 649 87" fill="none" paint-order="fill stroke markers" stroke="#000000" stroke-dasharray="" stroke-miterlimit="10"/></g><g><rect fill="#ffffff" height="13" stroke="none" transform="matrix(1 0 0 1 -550 -110)" width="28.5517578125" x="1118" y="175"/></g><g><g><path fill="none" stroke="none"/><text dominant-baseline="central" fill="#000000" font-family="Arial" font-size="13px" font-style="normal" font-weight="normal" stroke="none" text-anchor="middle" text-decoration="undefined" transform="matrix(1 0 0 1 -550 -110)" x="1132.27587890625" y="181.5">+has</text></g></g><g><rect fill="#ffffff" height="13" stroke="none" transform="matrix(1 0 0 1 -550 -110)" width="7.22998046875" x="1083" y="201"/></g><g><g><path fill="none" stroke="none"/><text dominant-baseline="central" fill="#000000" font-family="Arial" font-size="13px" font-style="normal" font-weight="normal" stroke="none" text-anchor="middle" text-decoration="undefined" transform="matrix(1 0 0 1 -550 -110)" x="1086.614990234375" y="207.5">1</text></g></g><g><rect fill="#ffffff" height="13" stroke="none" transform="matrix(1 0 0 1 -550 -110)" width="19.5126953125" x="1168" y="200"/></g><g><g><path fill="none" stroke="none"/><text dominant-baseline="central" fill="#000000" font-family="Arial" font-size="13px" font-style="normal" font-weight="normal" stroke="none" text-anchor="middle" text-decoration="undefined" transform="matrix(1 0 0 1 -550 -110)" x="1177.75634765625" y="206.5">1</text></g></g><g><path d=" M 57 481 L 210 226 L 345 138" fill="none" paint-order="fill stroke markers" stroke="#843535" stroke-dasharray="" stroke-miterlimit="10"/></g><g><rect fill="#ffffff" height="13" stroke="none" transform="matrix(1 0 0 1 -550 -110)" width="43.72265625" x="744" y="343"/></g><g><g><path fill="none" stroke="none"/><text dominant-baseline="central" fill="#000000" font-family="Arial" font-size="13px" font-style="normal" font-weight="normal" stroke="none" text-anchor="middle" text-decoration="undefined" transform="matrix(1 0 0 1 -550 -110)" x="765.861328125" y="349.5">+create</text></g></g><g><rect fill="#ffffff" height="13" stroke="none" transform="matrix(1 0 0 1 -550 -110)" width="7.22998046875" x="625" y="572"/></g><g><g><path fill="none" stroke="none"/><text dominant-baseline="central" fill="#000000" font-family="Arial" font-size="13px" font-style="normal" font-weight="normal" stroke="none" text-anchor="middle" text-decoration="undefined" transform="matrix(1 0 0 1 -550 -110)" x="628.614990234375" y="578.5">1</text></g></g><g><rect fill="#ffffff" height="13" stroke="none" transform="matrix(1 0 0 1 -550 -110)" width="19.5126953125" x="874" y="264"/></g><g><g><path fill="none" stroke="none"/><text dominant-baseline="central" fill="#000000" font-family="Arial" font-size="13px" font-style="normal" font-weight="normal" stroke="none" text-anchor="middle" text-decoration="undefined" transform="matrix(1 0 0 1 -550 -110)" x="883.75634765625" y="270.5">0..*</text></g></g><g><path d=" M 721 265 L 713 112" fill="none" paint-order="fill stroke markers" stroke="#000000" stroke-dasharray="" stroke-miterlimit="10"/></g><g><rect fill="#ffffff" height="13" stroke="none" transform="matrix(1 0 0 1 -550 -110)" width="28.5517578125" x="1238" y="292"/></g><g><g><path fill="none" stroke="none"/><text dominant-baseline="central" fill="#000000" font-family="Arial" font-size="13px" font-style="normal" font-weight="normal" stroke="none" text-anchor="middle" text-decoration="undefined" transform="matrix(1 0 0 1 -550 -110)" x="1252.27587890625" y="298.5">+has</text></g></g><g><rect fill="#ffffff" height="13" stroke="none" transform="matrix(1 0 0 1 -550 -110)" width="7.22998046875" x="1279" y="346"/></g><g><g><path fill="none" stroke="none"/><text dominant-baseline="central" fill="#000000" font-family="Arial" font-size="13px" font-style="normal" font-weight="normal" stroke="none" text-anchor="middle" text-decoration="undefined" transform="matrix(1 0 0 1 -550 -110)" x="1282.614990234375" y="352.5">1</text></g></g><g><rect fill="#ffffff" height="13" stroke="none" transform="matrix(1 0 0 1 -550 -110)" width="7.22998046875" x="1273" y="236"/></g><g><g><path fill="none" stroke="none"/><text dominant-baseline="central" fill="#000000" font-family="Arial" font-size="13px" font-style="normal" font-weight="normal" stroke="none" text-anchor="middle" text-decoration="undefined" transform="matrix(1 0 0 1 -550 -110)" x="1276.614990234375" y="242.5">1</text></g></g></g></svg>