<?xml version="1.0" encoding="UTF-8" standalone="no"?><svg xmlns="http://www.w3.org/2000/svg" xmlns:xlink="http://www.w3.org/1999/xlink" height="700" version="1.1" width="790.93798828125"><defs/><g><g><path d=" M 649 458.5 C 649 448.835016 671.8334752 441 700 441 C 728.1665248 441 751 448.835016 751 458.5 C 751 468.164984 728.1665248 476 700 476 C 671.8334752 476 649 468.164984 649 458.5 Z" fill="#C0C0C0" fill-opacity="0.2" paint-order="stroke fill markers" stroke="none"/></g><g><path d=" M 642 451.5 C 642 441.835016 664.8334752 434 693 434 C 721.1665248 434 744 441.835016 744 451.5 C 744 461.164984 721.1665248 469 693 469 C 664.8334752 469 642 461.164984 642 451.5 Z" fill="#ffffff" paint-order="stroke fill markers" stroke="none"/></g><g><path d=" M 642 451.5 C 642 441.835016 664.8334752 434 693 434 C 721.1665248 434 744 441.835016 744 451.5 C 744 461.164984 721.1665248 469 693 469 C 664.8334752 469 642 461.164984 642 451.5 Z" fill="none" paint-order="fill stroke markers" stroke="#000000" stroke-dasharray="" stroke-miterlimit="10"/></g><g><g><path fill="none" stroke="none"/><text dominant-baseline="central" fill="#000000" font-family="Arial" font-size="13px" font-style="normal" font-weight="bold" stroke="none" text-anchor="middle" text-decoration="undefined" transform="matrix(1 0 0 1 -150 -6)" x="843" y="458.5">Login</text></g></g><g><path d=" M 129 546.5 C 129 536.835016 189.8892672 529 265 529 C 340.1107328 529 401 536.835016 401 546.5 C 401 556.164984 340.1107328 564 265 564 C 189.8892672 564 129 556.164984 129 546.5 Z" fill="#C0C0C0" fill-opacity="0.2" paint-order="stroke fill markers" stroke="none"/></g><g><path d=" M 122 539.5 C 122 529.835016 182.8892672 522 258 522 C 333.1107328 522 394 529.835016 394 539.5 C 394 549.164984 333.1107328 557 258 557 C 182.8892672 557 122 549.164984 122 539.5 Z" fill="#ffffff" paint-order="stroke fill markers" stroke="none"/></g><g><path d=" M 122 539.5 C 122 529.835016 182.8892672 522 258 522 C 333.1107328 522 394 529.835016 394 539.5 C 394 549.164984 333.1107328 557 258 557 C 182.8892672 557 122 549.164984 122 539.5 Z" fill="none" paint-order="fill stroke markers" stroke="#000000" stroke-dasharray="" stroke-miterlimit="10"/></g><g><g><path fill="none" stroke="none"/><text dominant-baseline="central" fill="#000000" font-family="Arial" font-size="13px" font-style="normal" font-weight="bold" stroke="none" text-anchor="middle" text-decoration="undefined" transform="matrix(1 0 0 1 -150 -6)" x="408" y="546.5">Create a Battle</text></g></g><g><path d=" M 225 442.5 C 225 432.835016 269.77152 425 325 425 C 380.22848 425 425 432.835016 425 442.5 C 425 452.164984 380.22848 460 325 460 C 269.77152 460 225 452.164984 225 442.5 Z" fill="#C0C0C0" fill-opacity="0.2" paint-order="stroke fill markers" stroke="none"/></g><g><path d=" M 218 435.5 C 218 425.835016 262.77152 418 318 418 C 373.22848 418 418 425.835016 418 435.5 C 418 445.164984 373.22848 453 318 453 C 262.77152 453 218 445.164984 218 435.5 Z" fill="#ffffff" paint-order="stroke fill markers" stroke="none"/></g><g><path d=" M 218 435.5 C 218 425.835016 262.77152 418 318 418 C 373.22848 418 418 425.835016 418 435.5 C 418 445.164984 373.22848 453 318 453 C 262.77152 453 218 445.164984 218 435.5 Z" fill="none" paint-order="fill stroke markers" stroke="#000000" stroke-dasharray="" stroke-miterlimit="10"/></g><g><g><path fill="none" stroke="none"/><text dominant-baseline="central" fill="#000000" font-family="Arial" font-size="13px" font-style="normal" font-weight="bold" stroke="none" text-anchor="middle" text-decoration="undefined" transform="matrix(1 0 0 1 -150 -6)" x="468" y="442.5">Close a Tournament</text></g></g><g><path d=" M 233 354.5 C 233 344.835016 293.8892672 337 369 337 C 444.11073280000005 337 505 344.835016 505 354.5 C 505 364.164984 444.11073280000005 372 369 372 C 293.8892672 372 233 364.164984 233 354.5 Z" fill="#C0C0C0" fill-opacity="0.2" paint-order="stroke fill markers" stroke="none"/></g><g><path d=" M 226 347.5 C 226 337.835016 286.8892672 330 362 330 C 437.11073280000005 330 498 337.835016 498 347.5 C 498 357.164984 437.11073280000005 365 362 365 C 286.8892672 365 226 357.164984 226 347.5 Z" fill="#ffffff" paint-order="stroke fill markers" stroke="none"/></g><g><path d=" M 226 347.5 C 226 337.835016 286.8892672 330 362 330 C 437.11073280000005 330 498 337.835016 498 347.5 C 498 357.164984 437.11073280000005 365 362 365 C 286.8892672 365 226 357.164984 226 347.5 Z" fill="none" paint-order="fill stroke markers" stroke="#000000" stroke-dasharray="" stroke-miterlimit="10"/></g><g><g><path fill="none" stroke="none"/><text dominant-baseline="central" fill="#000000" font-family="Arial" font-size="13px" font-style="normal" font-weight="bold" stroke="none" text-anchor="middle" text-decoration="undefined" transform="matrix(1 0 0 1 -150 -6)" x="512" y="354.5">Assign a Grade for a Solution</text></g></g><g><path d=" M 385 162.5 C 385 152.835016 453.94814080000003 145 539 145 C 624.0518592 145 693 152.835016 693 162.5 C 693 172.164984 624.0518592 180 539 180 C 453.94814080000003 180 385 172.164984 385 162.5 Z" fill="#C0C0C0" fill-opacity="0.2" paint-order="stroke fill markers" stroke="none"/></g><g><path d=" M 378 155.5 C 378 145.835016 446.94814080000003 138 532 138 C 617.0518592 138 686 145.835016 686 155.5 C 686 165.164984 617.0518592 173 532 173 C 446.94814080000003 173 378 165.164984 378 155.5 Z" fill="#ffffff" paint-order="stroke fill markers" stroke="none"/></g><g><path d=" M 378 155.5 C 378 145.835016 446.94814080000003 138 532 138 C 617.0518592 138 686 145.835016 686 155.5 C 686 165.164984 617.0518592 173 532 173 C 446.94814080000003 173 378 165.164984 378 155.5 Z" fill="none" paint-order="fill stroke markers" stroke="#000000" stroke-dasharray="" stroke-miterlimit="10"/></g><g><g><path fill="none" stroke="none"/><text dominant-baseline="central" fill="#000000" font-family="Arial" font-size="13px" font-style="normal" font-weight="bold" stroke="none" text-anchor="middle" text-decoration="undefined" transform="matrix(1 0 0 1 -150 -6)" x="682" y="162.5">Add an Educator to a Tournament</text></g></g><g><path d=" M 321 258.5 C 321 248.835016 364.8760896 241 419 241 C 473.1239104 241 517 248.835016 517 258.5 C 517 268.164984 473.1239104 276 419 276 C 364.8760896 276 321 268.164984 321 258.5 Z" fill="#C0C0C0" fill-opacity="0.2" paint-order="stroke fill markers" stroke="none"/></g><g><path d=" M 314 251.5 C 314 241.835016 357.8760896 234 412 234 C 466.1239104 234 510 241.835016 510 251.5 C 510 261.164984 466.1239104 269 412 269 C 357.8760896 269 314 261.164984 314 251.5 Z" fill="#ffffff" paint-order="stroke fill markers" stroke="none"/></g><g><path d=" M 314 251.5 C 314 241.835016 357.8760896 234 412 234 C 466.1239104 234 510 241.835016 510 251.5 C 510 261.164984 466.1239104 269 412 269 C 357.8760896 269 314 261.164984 314 251.5 Z" fill="none" paint-order="fill stroke markers" stroke="#000000" stroke-dasharray="" stroke-miterlimit="10"/></g><g><g><path fill="none" stroke="none"/><text dominant-baseline="central" fill="#000000" font-family="Arial" font-size="13px" font-style="normal" font-weight="bold" stroke="none" text-anchor="middle" text-decoration="undefined" transform="matrix(1 0 0 1 -150 -6)" x="562" y="258.5">Create a Tournament</text></g></g><g><path d=" M 419 439 L 641 449" fill="none" paint-order="fill stroke markers" stroke="#000000" stroke-dasharray="3" stroke-miterlimit="10"/></g><g><path d=" M 630.6581939608174 452.7479391467747 L 641 449 L 631.037045633819 444.3374320061369" fill="none" paint-order="fill stroke markers" stroke="#000000" stroke-dasharray="" stroke-miterlimit="10"/></g><g><rect fill="#ffffff" height="13" stroke="none" transform="matrix(1 0 0 1 -150 -6)" width="55.65625" x="636" y="432"/></g><g><g><path fill="none" stroke="none"/><text dominant-baseline="central" fill="#000000" font-family="Arial" font-size="13px" font-style="normal" font-weight="normal" stroke="none" text-anchor="middle" text-decoration="undefined" transform="matrix(1 0 0 1 -150 -6)" x="663.828125" y="438.5">«include»</text></g></g><g><path d=" M 422 366 L 641 435" fill="none" paint-order="fill stroke markers" stroke="#000000" stroke-dasharray="3" stroke-miterlimit="10"/></g><g><path d=" M 630.0420593977543 435.96100871882413 L 641 435 L 632.5720301104527 427.9311016741726" fill="none" paint-order="fill stroke markers" stroke="#000000" stroke-dasharray="" stroke-miterlimit="10"/></g><g><rect fill="#ffffff" height="13" stroke="none" transform="matrix(1 0 0 1 -150 -6)" width="55.65625" x="631" y="373"/></g><g><g><path fill="none" stroke="none"/><text dominant-baseline="central" fill="#000000" font-family="Arial" font-size="13px" font-style="normal" font-weight="normal" stroke="none" text-anchor="middle" text-decoration="undefined" transform="matrix(1 0 0 1 -150 -6)" x="658.828125" y="379.5">«include»</text></g></g><g><path d=" M 439 270 L 668 433" fill="none" paint-order="fill stroke markers" stroke="#000000" stroke-dasharray="3" stroke-miterlimit="10"/></g><g><path d=" M 657.2794684223386 430.536221866246 L 668 433 L 662.1615936492276 423.6772851977945" fill="none" paint-order="fill stroke markers" stroke="#000000" stroke-dasharray="" stroke-miterlimit="10"/></g><g><rect fill="#ffffff" height="13" stroke="none" transform="matrix(1 0 0 1 -150 -6)" width="55.65625" x="693" y="326"/></g><g><g><path fill="none" stroke="none"/><text dominant-baseline="central" fill="#000000" font-family="Arial" font-size="13px" font-style="normal" font-weight="normal" stroke="none" text-anchor="middle" text-decoration="undefined" transform="matrix(1 0 0 1 -150 -6)" x="720.828125" y="332.5">«include»</text></g></g><g><path d=" M 542 174 L 683 433" fill="none" paint-order="fill stroke markers" stroke="#000000" stroke-dasharray="3" stroke-miterlimit="10"/></g><g><path d=" M 674.4436743705206 426.08702005483053 L 683 433 L 681.8379791227909 422.06154912791897" fill="none" paint-order="fill stroke markers" stroke="#000000" stroke-dasharray="" stroke-miterlimit="10"/></g><g><rect fill="#ffffff" height="13" stroke="none" transform="matrix(1 0 0 1 -150 -6)" width="55.65625" x="761" y="288"/></g><g><g><path fill="none" stroke="none"/><text dominant-baseline="central" fill="#000000" font-family="Arial" font-size="13px" font-style="normal" font-weight="normal" stroke="none" text-anchor="middle" text-decoration="undefined" transform="matrix(1 0 0 1 -150 -6)" x="788.828125" y="294.5">«include»</text></g></g><g><path d=" M 347 521 L 641 462" fill="none" paint-order="fill stroke markers" stroke="#000000" stroke-dasharray="3" stroke-miterlimit="10"/></g><g><path d=" M 631.8642368913133 468.1268125825718 L 641 462 L 630.2077292303381 459.8723506787294" fill="none" paint-order="fill stroke markers" stroke="#000000" stroke-dasharray="" stroke-miterlimit="10"/></g><g><rect fill="#ffffff" height="13" stroke="none" transform="matrix(1 0 0 1 -150 -6)" width="55.65625" x="610" y="480"/></g><g><g><path fill="none" stroke="none"/><text dominant-baseline="central" fill="#000000" font-family="Arial" font-size="13px" font-style="normal" font-weight="normal" stroke="none" text-anchor="middle" text-decoration="undefined" transform="matrix(1 0 0 1 -150 -6)" x="637.828125" y="486.5">«include»</text></g></g><g><path d=" M 34.3308984375 235.85 C 34.3308984375 230.96227952 38.288700805499985 227 43.1708984375 227 C 48.053096069500015 227 52.0108984375 230.96227952 52.0108984375 235.85 C 52.0108984375 240.73772047999998 48.053096069500015 244.7 43.1708984375 244.7 C 38.288700805499985 244.7 34.3308984375 240.73772047999998 34.3308984375 235.85 Z" fill="#38BCFF" paint-order="stroke fill markers" stroke="none"/></g><g><path d=" M 34.3308984375 235.85 C 34.3308984375 230.96227952 38.288700805499985 227 43.1708984375 227 C 48.053096069500015 227 52.0108984375 230.96227952 52.0108984375 235.85 C 52.0108984375 240.73772047999998 48.053096069500015 244.7 43.1708984375 244.7 C 38.288700805499985 244.7 34.3308984375 240.73772047999998 34.3308984375 235.85 Z" fill="none" paint-order="fill stroke markers" stroke="#000000" stroke-dasharray="" stroke-miterlimit="10"/></g><g><path d=" M 43.1708984375 244.7 L 43.1708984375 262.3" fill="none" paint-order="fill stroke markers" stroke="#000000" stroke-dasharray="" stroke-miterlimit="10"/></g><g><path d=" M 33.810898437499986 251.3 L 52.530898437500014 251.3" fill="none" paint-order="fill stroke markers" stroke="#000000" stroke-dasharray="" stroke-miterlimit="10"/></g><g><path d=" M 43.1708984375 262.3 L 30.1708984375 280" fill="none" paint-order="fill stroke markers" stroke="#000000" stroke-dasharray="" stroke-miterlimit="10"/></g><g><path d=" M 43.1708984375 262.3 L 56.1708984375 280" fill="none" paint-order="fill stroke markers" stroke="#000000" stroke-dasharray="" stroke-miterlimit="10"/></g><g><g><path fill="none" stroke="none"/><text dominant-baseline="central" fill="#000000" font-family="Arial" font-size="13px" font-style="normal" font-weight="bold" stroke="none" text-anchor="middle" text-decoration="undefined" transform="matrix(1 0 0 1 -150 -6)" x="193.6708984375" y="300.5">Educator</text></g></g><g><path d=" M 75 307 L 244 521" fill="none" paint-order="fill stroke markers" stroke="#000000" stroke-dasharray="" stroke-miterlimit="10"/></g><g><path d=" M 234.3979655140837 515.6333498594305 L 244 521 L 241.00513100847394 510.4155415951691" fill="none" paint-order="fill stroke markers" stroke="#000000" stroke-dasharray="" stroke-miterlimit="10"/></g><g><rect fill="#ffffff" height="13" stroke="none" transform="matrix(1 0 0 1 -150 -6)" width="75.537109375" x="221" y="394"/></g><g><g><path fill="none" stroke="none"/><text dominant-baseline="central" fill="#000000" font-family="Arial" font-size="13px" font-style="normal" font-weight="normal" stroke="none" text-anchor="middle" text-decoration="undefined" transform="matrix(1 0 0 1 -150 -6)" x="258.7685546875" y="400.5">+&lt;&lt;initiate&gt;&gt;</text></g></g><g><path d=" M 77 287 L 289 417" fill="none" paint-order="fill stroke markers" stroke="#000000" stroke-dasharray="" stroke-miterlimit="10"/></g><g><path d=" M 278.1359374909257 415.27600875903426 L 289 417 L 282.53699362579215 408.09890183140595" fill="none" paint-order="fill stroke markers" stroke="#000000" stroke-dasharray="" stroke-miterlimit="10"/></g><g><rect fill="#ffffff" height="13" stroke="none" transform="matrix(1 0 0 1 -150 -6)" width="75.537109375" x="303" y="339"/></g><g><g><path fill="none" stroke="none"/><text dominant-baseline="central" fill="#000000" font-family="Arial" font-size="13px" font-style="normal" font-weight="normal" stroke="none" text-anchor="middle" text-decoration="undefined" transform="matrix(1 0 0 1 -150 -6)" x="340.7685546875" y="345.5">+&lt;&lt;initiate&gt;&gt;</text></g></g><g><path d=" M 77 265 L 313 255" fill="none" paint-order="fill stroke markers" stroke="#000000" stroke-dasharray="" stroke-miterlimit="10"/></g><g><path d=" M 303.02464570292426 259.6359795780194 L 313 255 L 302.6682267347395 251.22449192885927" fill="none" paint-order="fill stroke markers" stroke="#000000" stroke-dasharray="" stroke-miterlimit="10"/></g><g><rect fill="#ffffff" height="13" stroke="none" transform="matrix(1 0 0 1 -150 -6)" width="75.537109375" x="348" y="274"/></g><g><g><path fill="none" stroke="none"/><text dominant-baseline="central" fill="#000000" font-family="Arial" font-size="13px" font-style="normal" font-weight="normal" stroke="none" text-anchor="middle" text-decoration="undefined" transform="matrix(1 0 0 1 -150 -6)" x="385.7685546875" y="280.5">+&lt;&lt;initiate&gt;&gt;</text></g></g><g><path d=" M 77 275 L 291 329" fill="none" paint-order="fill stroke markers" stroke="#000000" stroke-dasharray="" stroke-miterlimit="10"/></g><g><path d=" M 280.1162671826561 330.5951049998891 L 291 329 L 282.1761291581074 322.43194828235966" fill="none" paint-order="fill stroke markers" stroke="#000000" stroke-dasharray="" stroke-miterlimit="10"/></g><g><rect fill="#ffffff" height="13" stroke="none" transform="matrix(1 0 0 1 -150 -6)" width="75.537109375" x="370" y="304"/></g><g><g><path fill="none" stroke="none"/><text dominant-baseline="central" fill="#000000" font-family="Arial" font-size="13px" font-style="normal" font-weight="normal" stroke="none" text-anchor="middle" text-decoration="undefined" transform="matrix(1 0 0 1 -150 -6)" x="407.7685546875" y="310.5">+&lt;&lt;initiate&gt;&gt;</text></g></g><g><path d=" M 77 258 L 448 174" fill="none" paint-order="fill stroke markers" stroke="#000000" stroke-dasharray="" stroke-miterlimit="10"/></g><g><path d=" M 439.01777756380886 180.34977795728193 L 448 174 L 437.15863855262035 172.13858065786619" fill="none" paint-order="fill stroke markers" stroke="#000000" stroke-dasharray="" stroke-miterlimit="10"/></g><g><rect fill="#ffffff" height="13" stroke="none" transform="matrix(1 0 0 1 -150 -6)" width="79.14892578125" x="369" y="201"/></g><g><g><path fill="none" stroke="none"/><text dominant-baseline="central" fill="#000000" font-family="Arial" font-size="13px" font-style="normal" font-weight="normal" stroke="none" text-anchor="middle" text-decoration="undefined" transform="matrix(1 0 0 1 -150 -6)" x="408.574462890625" y="207.5">+&lt;&lt;initiate&gt;&gt;</text></g></g><g><path d=" M 680.462734375 555.85 C 680.462734375 550.96227952 684.420536743 547 689.302734375 547 C 694.184932007 547 698.142734375 550.96227952 698.142734375 555.85 C 698.142734375 560.73772048 694.184932007 564.7 689.302734375 564.7 C 684.420536743 564.7 680.462734375 560.73772048 680.462734375 555.85 Z" fill="#6E5494" paint-order="stroke fill markers" stroke="none"/></g><g><path d=" M 680.462734375 555.85 C 680.462734375 550.96227952 684.420536743 547 689.302734375 547 C 694.184932007 547 698.142734375 550.96227952 698.142734375 555.85 C 698.142734375 560.73772048 694.184932007 564.7 689.302734375 564.7 C 684.420536743 564.7 680.462734375 560.73772048 680.462734375 555.85 Z" fill="none" paint-order="fill stroke markers" stroke="#000000" stroke-dasharray="" stroke-miterlimit="10"/></g><g><path d=" M 689.302734375 564.7 L 689.302734375 582.3" fill="none" paint-order="fill stroke markers" stroke="#000000" stroke-dasharray="" stroke-miterlimit="10"/></g><g><path d=" M 679.942734375 571.3 L 698.662734375 571.3" fill="none" paint-order="fill stroke markers" stroke="#000000" stroke-dasharray="" stroke-miterlimit="10"/></g><g><path d=" M 689.302734375 582.3 L 676.302734375 600" fill="none" paint-order="fill stroke markers" stroke="#000000" stroke-dasharray="" stroke-miterlimit="10"/></g><g><path d=" M 689.302734375 582.3 L 702.302734375 600" fill="none" paint-order="fill stroke markers" stroke="#000000" stroke-dasharray="" stroke-miterlimit="10"/></g><g><g><path fill="none" stroke="none"/><text dominant-baseline="central" fill="#000000" font-family="Arial" font-size="13px" font-style="normal" font-weight="bold" stroke="none" text-anchor="middle" text-decoration="undefined" transform="matrix(1 0 0 1 -150 -6)" x="839.802734375" y="620.5">GitHub API</text></g></g><g><path d=" M 690 545 L 692 470" fill="none" paint-order="fill stroke markers" stroke="#000000" stroke-dasharray="" stroke-miterlimit="10"/></g><g><path d=" M 695.9371134793516 480.27127730375867 L 692 470 L 687.5210698066153 480.0468494724857" fill="none" paint-order="fill stroke markers" stroke="#000000" stroke-dasharray="" stroke-miterlimit="10"/></g><g><rect fill="#ffffff" height="13" stroke="none" transform="matrix(1 0 0 1 -150 -6)" width="97.93798828125" x="833" y="511"/></g><g><g><path fill="none" stroke="none"/><text dominant-baseline="central" fill="#000000" font-family="Arial" font-size="13px" font-style="normal" font-weight="normal" stroke="none" text-anchor="middle" text-decoration="undefined" transform="matrix(1 0 0 1 -150 -6)" x="881.968994140625" y="517.5">+&lt;&lt;participate&gt;&gt;</text></g></g><g><path d=" M 437.94588867187497 19.85 C 437.94588867187497 14.96227952 441.90369103987496 11 446.785888671875 11 C 451.66808630387504 11 455.62588867187503 14.96227952 455.62588867187503 19.85 C 455.62588867187503 24.737720480000004 451.66808630387504 28.700000000000003 446.785888671875 28.700000000000003 C 441.90369103987496 28.700000000000003 437.94588867187497 24.737720480000004 437.94588867187497 19.85 Z" fill="#38BCFF" paint-order="stroke fill markers" stroke="none"/></g><g><path d=" M 437.94588867187497 19.85 C 437.94588867187497 14.96227952 441.90369103987496 11 446.785888671875 11 C 451.66808630387504 11 455.62588867187503 14.96227952 455.62588867187503 19.85 C 455.62588867187503 24.737720480000004 451.66808630387504 28.700000000000003 446.785888671875 28.700000000000003 C 441.90369103987496 28.700000000000003 437.94588867187497 24.737720480000004 437.94588867187497 19.85 Z" fill="none" paint-order="fill stroke markers" stroke="#000000" stroke-dasharray="" stroke-miterlimit="10"/></g><g><path d=" M 446.785888671875 28.700000000000003 L 446.785888671875 46.3" fill="none" paint-order="fill stroke markers" stroke="#000000" stroke-dasharray="" stroke-miterlimit="10"/></g><g><path d=" M 437.425888671875 35.3 L 456.145888671875 35.3" fill="none" paint-order="fill stroke markers" stroke="#000000" stroke-dasharray="" stroke-miterlimit="10"/></g><g><path d=" M 446.785888671875 46.3 L 433.785888671875 64" fill="none" paint-order="fill stroke markers" stroke="#000000" stroke-dasharray="" stroke-miterlimit="10"/></g><g><path d=" M 446.785888671875 46.3 L 459.785888671875 64" fill="none" paint-order="fill stroke markers" stroke="#000000" stroke-dasharray="" stroke-miterlimit="10"/></g><g><g><path fill="none" stroke="none"/><text dominant-baseline="central" fill="#000000" font-family="Arial" font-size="13px" font-style="normal" font-weight="bold" stroke="none" text-anchor="middle" text-decoration="undefined" transform="matrix(1 0 0 1 -150 -6)" x="597.285888671875" y="84.5">Educator2</text></g></g><g><path d=" M 480 91 L 517 137" fill="none" paint-order="fill stroke markers" stroke="#000000" stroke-dasharray="" stroke-miterlimit="10"/></g><g><path d=" M 507.35034282370816 131.71945870387907 L 517 137 L 513.9105685333412 126.44275541569587" fill="none" paint-order="fill stroke markers" stroke="#000000" stroke-dasharray="" stroke-miterlimit="10"/></g><g><rect fill="#ffffff" height="13" stroke="none" transform="matrix(1 0 0 1 -150 -6)" width="67.57080078125" x="644" y="95"/></g><g><g><path fill="none" stroke="none"/><text dominant-baseline="central" fill="#000000" font-family="Arial" font-size="13px" font-style="normal" font-weight="normal" stroke="none" text-anchor="middle" text-decoration="undefined" transform="matrix(1 0 0 1 -150 -6)" x="677.785400390625" y="101.5">+participate</text></g></g><g><path d=" M 343.577724609375 619.85 C 343.577724609375 614.96227952 347.535526977375 611 352.417724609375 611 C 357.299922241375 611 361.257724609375 614.96227952 361.257724609375 619.85 C 361.257724609375 624.73772048 357.299922241375 628.7 352.417724609375 628.7 C 347.535526977375 628.7 343.577724609375 624.73772048 343.577724609375 619.85 Z" fill="#6E5494" paint-order="stroke fill markers" stroke="none"/></g><g><path d=" M 343.577724609375 619.85 C 343.577724609375 614.96227952 347.535526977375 611 352.417724609375 611 C 357.299922241375 611 361.257724609375 614.96227952 361.257724609375 619.85 C 361.257724609375 624.73772048 357.299922241375 628.7 352.417724609375 628.7 C 347.535526977375 628.7 343.577724609375 624.73772048 343.577724609375 619.85 Z" fill="none" paint-order="fill stroke markers" stroke="#000000" stroke-dasharray="" stroke-miterlimit="10"/></g><g><path d=" M 352.417724609375 628.7 L 352.417724609375 646.3" fill="none" paint-order="fill stroke markers" stroke="#000000" stroke-dasharray="" stroke-miterlimit="10"/></g><g><path d=" M 343.057724609375 635.3 L 361.777724609375 635.3" fill="none" paint-order="fill stroke markers" stroke="#000000" stroke-dasharray="" stroke-miterlimit="10"/></g><g><path d=" M 352.417724609375 646.3 L 339.417724609375 664" fill="none" paint-order="fill stroke markers" stroke="#000000" stroke-dasharray="" stroke-miterlimit="10"/></g><g><path d=" M 352.417724609375 646.3 L 365.417724609375 664" fill="none" paint-order="fill stroke markers" stroke="#000000" stroke-dasharray="" stroke-miterlimit="10"/></g><g><g><path fill="none" stroke="none"/><text dominant-baseline="central" fill="#000000" font-family="Arial" font-size="13px" font-style="normal" font-weight="bold" stroke="none" text-anchor="middle" text-decoration="undefined" transform="matrix(1 0 0 1 -150 -6)" x="502.917724609375" y="684.5">GitHub Repository</text></g></g><g><path d=" M 317 609 L 274 558" fill="none" paint-order="fill stroke markers" stroke="#000000" stroke-dasharray="" stroke-miterlimit="10"/></g><g><path d=" M 283.7691025842409 563.0561482077345 L 274 558 L 277.3325619990505 568.4830353677971" fill="none" paint-order="fill stroke markers" stroke="#000000" stroke-dasharray="" stroke-miterlimit="10"/></g></g></svg>