<?xml version="1.0" encoding="UTF-8" standalone="no"?><svg xmlns="http://www.w3.org/2000/svg" xmlns:xlink="http://www.w3.org/1999/xlink" height="612" version="1.1" width="1028"><defs/><g><g><path d=" M 10 10 L 1018 10 L 1018 602 L 10 602 L 10 10" fill="none" paint-order="fill stroke markers" stroke="#000000" stroke-dasharray="" stroke-miterlimit="10"/></g><g><path d=" M 10 10 L 10 33 L 263.00244140625 33 L 274.50244140625 21.5 L 274.50244140625 10 L 10 10" fill="#ffffff" paint-order="stroke fill markers" stroke="none"/></g><g><path d=" M 10 10 L 10 33 L 263.00244140625 33 L 274.50244140625 21.5 L 274.50244140625 10 L 10 10 L 10 10" fill="none" paint-order="fill stroke markers" stroke="#000000" stroke-dasharray="" stroke-miterlimit="10"/></g><g><g><path fill="none" stroke="none"/><text dominant-baseline="central" fill="#000000" font-family="Arial" font-size="13px" font-style="normal" font-weight="normal" stroke="none" text-anchor="middle" text-decoration="undefined" transform="matrix(1 0 0 1 -22 10)" x="168.3662109375" y="11.5">[UC1] - Educator creates a tournament</text></g></g><g><g><path fill="none" stroke="none"/><text dominant-baseline="central" fill="#000000" font-family="Arial" font-size="13px" font-style="normal" font-weight="bold" stroke="none" text-anchor="middle" text-decoration="undefined" transform="matrix(1 0 0 1 -22 10)" x="43.864990234375" y="11.5">sd</text></g></g><g><rect fill="#C0C0C0" fill-opacity="0.2" height="40" stroke="none" transform="matrix(1 0 0 1 -22 10)" width="76.341796875" x="95" y="47"/></g><g><rect fill="#ffffff" height="40" stroke="none" transform="matrix(1 0 0 1 -22 10)" width="76.341796875" x="88" y="40"/></g><g><path d=" M 66 50 L 142.341796875 50 L 142.341796875 90 L 66 90 L 66 50 Z Z" fill="none" paint-order="fill stroke markers" stroke="#000000" stroke-dasharray="" stroke-miterlimit="10"/></g><g><g><path fill="none" stroke="none"/><text dominant-baseline="central" fill="#000000" font-family="Arial" font-size="13px" font-style="normal" font-weight="bold" stroke="none" text-anchor="middle" text-decoration="undefined" transform="matrix(1 0 0 1 -22 10)" x="126.6708984375" y="53.5">Educator</text></g></g><g><path d=" M 104.5 91 L 104.5 601" fill="none" paint-order="fill stroke markers" stroke="#000000" stroke-dasharray="3" stroke-miterlimit="10"/></g><g><rect fill="#C0C0C0" fill-opacity="0.2" height="40" stroke="none" transform="matrix(1 0 0 1 -22 10)" width="72.736328125" x="671" y="47"/></g><g><rect fill="#ffffff" height="40" stroke="none" transform="matrix(1 0 0 1 -22 10)" width="72.736328125" x="664" y="40"/></g><g><path d=" M 642 50 L 714.736328125 50 L 714.736328125 90 L 642 90 L 642 50 Z Z" fill="none" paint-order="fill stroke markers" stroke="#000000" stroke-dasharray="" stroke-miterlimit="10"/></g><g><g><path fill="none" stroke="none"/><text dominant-baseline="central" fill="#000000" font-family="Arial" font-size="13px" font-style="normal" font-weight="bold" stroke="none" text-anchor="middle" text-decoration="undefined" transform="matrix(1 0 0 1 -22 10)" x="700.8681640625" y="53.5">System</text></g></g><g><path d=" M 678.5 91 L 678.5 593" fill="none" paint-order="fill stroke markers" stroke="#000000" stroke-dasharray="3" stroke-miterlimit="10"/></g><g><rect fill="#C0C0C0" fill-opacity="0.2" height="40" stroke="none" transform="matrix(1 0 0 1 -22 10)" width="75.61181640625" x="943" y="47"/></g><g><rect fill="#ffffff" height="40" stroke="none" transform="matrix(1 0 0 1 -22 10)" width="75.61181640625" x="936" y="40"/></g><g><path d=" M 914 50 L 989.61181640625 50 L 989.61181640625 90 L 914 90 L 914 50 Z Z" fill="none" paint-order="fill stroke markers" stroke="#000000" stroke-dasharray="" stroke-miterlimit="10"/></g><g><g><path fill="none" stroke="none"/><text dominant-baseline="central" fill="#000000" font-family="Arial" font-size="13px" font-style="normal" font-weight="bold" stroke="none" text-anchor="middle" text-decoration="undefined" transform="matrix(1 0 0 1 -22 10)" x="974.305908203125" y="53.5">Students</text></g></g><g><path d=" M 952.5 91 L 952.5 500" fill="none" paint-order="fill stroke markers" stroke="#000000" stroke-dasharray="3" stroke-miterlimit="10"/></g><g><path d=" M 42 106 L 199 106 L 209 116 L 209 143 L 42 143 L 42 106" fill="#C39898" paint-order="stroke fill markers" stroke="none"/></g><g><path d=" M 42 106 L 199 106 L 209 116 L 209 143 L 42 143 L 42 106 L 42 106" fill="none" paint-order="fill stroke markers" stroke="#000000" stroke-dasharray="" stroke-miterlimit="10"/></g><g><path d=" M 199 106 L 199 116 L 209 116 L 199 106" fill="none" paint-order="fill stroke markers" stroke="#000000" stroke-dasharray="" stroke-miterlimit="10"/></g><g><g><path fill="none" stroke="none"/><text dominant-baseline="text-before-edge" fill="#000000" font-family="Arial" font-size="13px" font-style="normal" font-weight="normal" stroke="none" text-anchor="start" text-decoration="undefined" transform="matrix(1 0 0 1 -22 10)" x="69" y="101">The Educator is logged in</text><text dominant-baseline="text-before-edge" fill="#000000" font-family="Arial" font-size="13px" font-style="normal" font-weight="normal" stroke="none" text-anchor="start" text-decoration="undefined" transform="matrix(1 0 0 1 -22 10)" x="69" y="114">the system</text></g></g><g><path d=" M 105 170 L 671 170" fill="none" paint-order="fill stroke markers" stroke="#000000" stroke-dasharray="" stroke-miterlimit="10"/></g><g><path d=" M 660.8373251423759 174.209517756016 L 671 170 L 660.8373251423758 165.790482243984" fill="#000000" paint-order="stroke fill markers" stroke="none"/></g><g><path d=" M 660.8373251423759 174.209517756016 L 671 170 L 660.8373251423758 165.790482243984 L 660.8373251423759 174.209517756016" fill="none" paint-order="fill stroke markers" stroke="#000000" stroke-dasharray="" stroke-miterlimit="10"/></g><g><rect fill="#ffffff" height="13" stroke="none" transform="matrix(1 0 0 1 -22 10)" width="131.50439453125" x="345" y="144"/></g><g><g><path fill="none" stroke="none"/><text dominant-baseline="central" fill="#000000" font-family="Arial" font-size="13px" font-style="normal" font-weight="normal" stroke="none" text-anchor="middle" text-decoration="undefined" transform="matrix(1 0 0 1 -22 10)" x="410.752197265625" y="150.5">1 : createTournament()</text></g></g><g><rect fill="#ffffff" height="28" stroke="none" transform="matrix(1 0 0 1 -22 10)" width="14" x="693" y="160"/></g><g><path d=" M 671 170 L 685 170 L 685 198 L 671 198 L 671 170 Z Z" fill="none" paint-order="fill stroke markers" stroke="#000000" stroke-dasharray="" stroke-miterlimit="10"/></g><g><path d=" M 678 202 L 105 202" fill="none" paint-order="fill stroke markers" stroke="#000000" stroke-dasharray="3" stroke-miterlimit="10"/></g><g><path d=" M 115.16267485762415 197.790482243984 L 105 202 L 115.16267485762415 206.209517756016" fill="none" paint-order="fill stroke markers" stroke="#000000" stroke-dasharray="" stroke-miterlimit="10"/></g><g><rect fill="#ffffff" height="13" stroke="none" transform="matrix(1 0 0 1 -22 10)" width="202.2998046875" x="311" y="196"/></g><g><g><path fill="none" stroke="none"/><text dominant-baseline="central" fill="#000000" font-family="Arial" font-size="13px" font-style="normal" font-weight="normal" stroke="none" text-anchor="middle" text-decoration="undefined" transform="matrix(1 0 0 1 -22 10)" x="412.14990234375" y="202.5">2 : show(tournamentCreationForm)</text></g></g><g><path d=" M 105 258 L 671 258" fill="none" paint-order="fill stroke markers" stroke="#000000" stroke-dasharray="" stroke-miterlimit="10"/></g><g><path d=" M 660.8373251423759 262.209517756016 L 671 258 L 660.8373251423758 253.790482243984" fill="#000000" paint-order="stroke fill markers" stroke="none"/></g><g><path d=" M 660.8373251423759 262.209517756016 L 671 258 L 660.8373251423758 253.790482243984 L 660.8373251423759 262.209517756016" fill="none" paint-order="fill stroke markers" stroke="#000000" stroke-dasharray="" stroke-miterlimit="10"/></g><g><rect fill="#ffffff" height="13" stroke="none" transform="matrix(1 0 0 1 -22 10)" width="158.234375" x="331" y="232"/></g><g><g><path fill="none" stroke="none"/><text dominant-baseline="central" fill="#000000" font-family="Arial" font-size="13px" font-style="normal" font-weight="normal" stroke="none" text-anchor="middle" text-decoration="undefined" transform="matrix(1 0 0 1 -22 10)" x="410.1171875" y="238.5">3 : submit(tournamentData)</text></g></g><g><rect fill="#ffffff" height="28" stroke="none" transform="matrix(1 0 0 1 -22 10)" width="14" x="693" y="248"/></g><g><path d=" M 671 258 L 685 258 L 685 286 L 671 286 L 671 258 Z Z" fill="none" paint-order="fill stroke markers" stroke="#000000" stroke-dasharray="" stroke-miterlimit="10"/></g><g><path d=" M 685 274 L 715 274 L 715 294 L 685 294" fill="none" paint-order="fill stroke markers" stroke="#000000" stroke-dasharray="" stroke-miterlimit="10"/></g><g><path d=" M 695.1626748576241 289.790482243984 L 685 294 L 695.1626748576241 298.209517756016" fill="#000000" paint-order="stroke fill markers" stroke="none"/></g><g><path d=" M 695.1626748576241 289.790482243984 L 685 294 L 695.1626748576241 298.209517756016 L 695.1626748576241 289.790482243984" fill="none" paint-order="fill stroke markers" stroke="#000000" stroke-dasharray="" stroke-miterlimit="10"/></g><g><rect fill="#ffffff" height="13" stroke="none" transform="matrix(1 0 0 1 -22 10)" width="181.365234375" x="712" y="248"/></g><g><g><path fill="none" stroke="none"/><text dominant-baseline="central" fill="#000000" font-family="Arial" font-size="13px" font-style="normal" font-weight="normal" stroke="none" text-anchor="middle" text-decoration="undefined" transform="matrix(1 0 0 1 -22 10)" x="802.6826171875" y="254.5">4 : checkData(tournamentData)</text></g></g><g><rect fill="#ffffff" height="28" stroke="none" transform="matrix(1 0 0 1 -22 10)" width="14" x="693" y="284"/></g><g><path d=" M 671 294 L 685 294 L 685 322 L 671 322 L 671 294 Z Z" fill="none" paint-order="fill stroke markers" stroke="#000000" stroke-dasharray="" stroke-miterlimit="10"/></g><g><path d=" M 678 370 L 105 370" fill="none" paint-order="fill stroke markers" stroke="#000000" stroke-dasharray="3" stroke-miterlimit="10"/></g><g><path d=" M 115.16267485762415 365.790482243984 L 105 370 L 115.16267485762415 374.209517756016" fill="none" paint-order="fill stroke markers" stroke="#000000" stroke-dasharray="" stroke-miterlimit="10"/></g><g><rect fill="#ffffff" height="13" stroke="none" transform="matrix(1 0 0 1 -22 10)" width="36.84814453125" x="394" y="364"/></g><g><g><path fill="none" stroke="none"/><text dominant-baseline="central" fill="#000000" font-family="Arial" font-size="13px" font-style="normal" font-weight="normal" stroke="none" text-anchor="middle" text-decoration="undefined" transform="matrix(1 0 0 1 -22 10)" x="412.424072265625" y="370.5">5 : OK</text></g></g><g><path d=" M 105 418 L 671 418" fill="none" paint-order="fill stroke markers" stroke="#000000" stroke-dasharray="" stroke-miterlimit="10"/></g><g><path d=" M 660.8373251423759 422.209517756016 L 671 418 L 660.8373251423758 413.790482243984" fill="#000000" paint-order="stroke fill markers" stroke="none"/></g><g><path d=" M 660.8373251423759 422.209517756016 L 671 418 L 660.8373251423758 413.790482243984 L 660.8373251423759 422.209517756016" fill="none" paint-order="fill stroke markers" stroke="#000000" stroke-dasharray="" stroke-miterlimit="10"/></g><g><rect fill="#ffffff" height="13" stroke="none" transform="matrix(1 0 0 1 -22 10)" width="187.12890625" x="317" y="392"/></g><g><g><path fill="none" stroke="none"/><text dominant-baseline="central" fill="#000000" font-family="Arial" font-size="13px" font-style="normal" font-weight="normal" stroke="none" text-anchor="middle" text-decoration="undefined" transform="matrix(1 0 0 1 -22 10)" x="410.564453125" y="398.5">6 : confirmTournamentCreation()</text></g></g><g><rect fill="#ffffff" height="28" stroke="none" transform="matrix(1 0 0 1 -22 10)" width="14" x="693" y="408"/></g><g><path d=" M 671 418 L 685 418 L 685 446 L 671 446 L 671 418 Z Z" fill="none" paint-order="fill stroke markers" stroke="#000000" stroke-dasharray="" stroke-miterlimit="10"/></g><g><path d=" M 685 434 L 945 434" fill="none" paint-order="fill stroke markers" stroke="#000000" stroke-dasharray="" stroke-miterlimit="10"/></g><g><path d=" M 934.8373251423759 438.209517756016 L 945 434 L 934.8373251423758 429.790482243984" fill="#000000" paint-order="stroke fill markers" stroke="none"/></g><g><path d=" M 934.8373251423759 438.209517756016 L 945 434 L 934.8373251423758 429.790482243984 L 934.8373251423759 438.209517756016" fill="none" paint-order="fill stroke markers" stroke="#000000" stroke-dasharray="" stroke-miterlimit="10"/></g><g><rect fill="#ffffff" height="13" stroke="none" transform="matrix(1 0 0 1 -22 10)" width="219.67333984375" x="728" y="408"/></g><g><g><path fill="none" stroke="none"/><text dominant-baseline="central" fill="#000000" font-family="Arial" font-size="13px" font-style="normal" font-weight="normal" stroke="none" text-anchor="middle" text-decoration="undefined" transform="matrix(1 0 0 1 -22 10)" x="837.836669921875" y="414.5">7 : sendNotification(tournamentData)</text></g></g><g><rect fill="#ffffff" height="28" stroke="none" transform="matrix(1 0 0 1 -22 10)" width="14" x="967" y="424"/></g><g><path d=" M 945 434 L 959 434 L 959 462 L 945 462 L 945 434 Z Z" fill="none" paint-order="fill stroke markers" stroke="#000000" stroke-dasharray="" stroke-miterlimit="10"/></g><g><path d=" M 678 466 L 105 466" fill="none" paint-order="fill stroke markers" stroke="#000000" stroke-dasharray="3" stroke-miterlimit="10"/></g><g><path d=" M 115.16267485762415 461.790482243984 L 105 466 L 115.16267485762415 470.209517756016" fill="none" paint-order="fill stroke markers" stroke="#000000" stroke-dasharray="" stroke-miterlimit="10"/></g><g><rect fill="#ffffff" height="13" stroke="none" transform="matrix(1 0 0 1 -22 10)" width="152.45166015625" x="336" y="460"/></g><g><g><path fill="none" stroke="none"/><text dominant-baseline="central" fill="#000000" font-family="Arial" font-size="13px" font-style="normal" font-weight="normal" stroke="none" text-anchor="middle" text-decoration="undefined" transform="matrix(1 0 0 1 -22 10)" x="412.225830078125" y="466.5">8 : show(successScreen)</text></g></g><g><path d=" M 678 562 L 105 562" fill="none" paint-order="fill stroke markers" stroke="#000000" stroke-dasharray="3" stroke-miterlimit="10"/></g><g><path d=" M 115.16267485762415 557.790482243984 L 105 562 L 115.16267485762415 566.209517756016" fill="none" paint-order="fill stroke markers" stroke="#000000" stroke-dasharray="" stroke-miterlimit="10"/></g><g><rect fill="#ffffff" height="13" stroke="none" transform="matrix(1 0 0 1 -22 10)" width="209.52978515625" x="308" y="556"/></g><g><g><path fill="none" stroke="none"/><text dominant-baseline="central" fill="#000000" font-family="Arial" font-size="13px" font-style="normal" font-weight="normal" stroke="none" text-anchor="middle" text-decoration="undefined" transform="matrix(1 0 0 1 -22 10)" x="412.764892578125" y="562.5">9 : show(tournamentCreationForm)</text></g></g><g><path d=" M 42 338 L 994 338 L 994 594 L 42 594 L 42 338" fill="none" paint-order="fill stroke markers" stroke="#000000" stroke-dasharray="" stroke-miterlimit="10"/></g><g><path d=" M 42 338 L 42 361 L 140.3798828125 361 L 151.8798828125 349.5 L 151.8798828125 338 L 42 338" fill="#ffffff" paint-order="stroke fill markers" stroke="none"/></g><g><path d=" M 42 338 L 42 361 L 140.3798828125 361 L 151.8798828125 349.5 L 151.8798828125 338 L 42 338 L 42 338" fill="none" paint-order="fill stroke markers" stroke="#000000" stroke-dasharray="" stroke-miterlimit="10"/></g><g><g><path fill="none" stroke="none"/><text dominant-baseline="central" fill="#000000" font-family="Arial" font-size="13px" font-style="normal" font-weight="normal" stroke="none" text-anchor="middle" text-decoration="undefined" transform="matrix(1 0 0 1 -22 10)" x="123.054931640625" y="339.5">data is valid</text></g></g><g><g><path fill="none" stroke="none"/><text dominant-baseline="central" fill="#000000" font-family="Arial" font-size="13px" font-style="normal" font-weight="bold" stroke="none" text-anchor="middle" text-decoration="undefined" transform="matrix(1 0 0 1 -22 10)" x="75.864990234375" y="339.5">alt</text></g></g><g><path d=" M 42 522 L 994 522" fill="none" paint-order="fill stroke markers" stroke="#000000" stroke-dasharray="10,3" stroke-miterlimit="10"/></g><g><g><path fill="none" stroke="none"/><text dominant-baseline="central" fill="#000000" font-family="Arial" font-size="13px" font-style="normal" font-weight="normal" stroke="none" text-anchor="middle" text-decoration="undefined" transform="matrix(1 0 0 1 -22 10)" x="99.535888671875" y="533.5">[else]</text></g></g></g></svg>