<?xml version="1.0" encoding="UTF-8" standalone="no"?><svg xmlns="http://www.w3.org/2000/svg" xmlns:xlink="http://www.w3.org/1999/xlink" height="524" version="1.1" width="1028"><defs/><g><g><path d=" M 10 10 L 1018 10 L 1018 514 L 10 514 L 10 10" fill="none" paint-order="fill stroke markers" stroke="#000000" stroke-dasharray="" stroke-miterlimit="10"/></g><g><path d=" M 10 10 L 10 33 L 438.64208984375 33 L 450.14208984375 21.5 L 450.14208984375 10 L 10 10" fill="#ffffff" paint-order="stroke fill markers" stroke="none"/></g><g><path d=" M 10 10 L 10 33 L 438.64208984375 33 L 450.14208984375 21.5 L 450.14208984375 10 L 10 10 L 10 10" fill="none" paint-order="fill stroke markers" stroke="#000000" stroke-dasharray="" stroke-miterlimit="10"/></g><g><g><path fill="none" stroke="none"/><text dominant-baseline="central" fill="#000000" font-family="Arial" font-size="13px" font-style="normal" font-weight="normal" stroke="none" text-anchor="middle" text-decoration="undefined" transform="matrix(1 0 0 1 -30 2)" x="264.18603515625" y="19.5">[UC2]  Educator adds another educator in a tournament they manage</text></g></g><g><g><path fill="none" stroke="none"/><text dominant-baseline="central" fill="#000000" font-family="Arial" font-size="13px" font-style="normal" font-weight="bold" stroke="none" text-anchor="middle" text-decoration="undefined" transform="matrix(1 0 0 1 -30 2)" x="51.864990234375" y="19.5">sd</text></g></g><g><rect fill="#C0C0C0" fill-opacity="0.2" height="40" stroke="none" transform="matrix(1 0 0 1 -30 2)" width="76.341796875" x="95" y="47"/></g><g><rect fill="#ffffff" height="40" stroke="none" transform="matrix(1 0 0 1 -30 2)" width="76.341796875" x="88" y="40"/></g><g><path d=" M 58 42 L 134.341796875 42 L 134.341796875 82 L 58 82 L 58 42 Z Z" fill="none" paint-order="fill stroke markers" stroke="#000000" stroke-dasharray="" stroke-miterlimit="10"/></g><g><g><path fill="none" stroke="none"/><text dominant-baseline="central" fill="#000000" font-family="Arial" font-size="13px" font-style="normal" font-weight="bold" stroke="none" text-anchor="middle" text-decoration="undefined" transform="matrix(1 0 0 1 -30 2)" x="126.6708984375" y="53.5">Educator</text></g></g><g><path d=" M 96.5 83 L 96.5 482" fill="none" paint-order="fill stroke markers" stroke="#000000" stroke-dasharray="3" stroke-miterlimit="10"/></g><g><rect fill="#C0C0C0" fill-opacity="0.2" height="40" stroke="none" transform="matrix(1 0 0 1 -30 2)" width="72.736328125" x="671" y="47"/></g><g><rect fill="#ffffff" height="40" stroke="none" transform="matrix(1 0 0 1 -30 2)" width="72.736328125" x="664" y="40"/></g><g><path d=" M 634 42 L 706.736328125 42 L 706.736328125 82 L 634 82 L 634 42 Z Z" fill="none" paint-order="fill stroke markers" stroke="#000000" stroke-dasharray="" stroke-miterlimit="10"/></g><g><g><path fill="none" stroke="none"/><text dominant-baseline="central" fill="#000000" font-family="Arial" font-size="13px" font-style="normal" font-weight="bold" stroke="none" text-anchor="middle" text-decoration="undefined" transform="matrix(1 0 0 1 -30 2)" x="700.8681640625" y="53.5">System</text></g></g><g><path d=" M 670.5 83 L 670.5 482" fill="none" paint-order="fill stroke markers" stroke="#000000" stroke-dasharray="3" stroke-miterlimit="10"/></g><g><rect fill="#C0C0C0" fill-opacity="0.2" height="40" stroke="none" transform="matrix(1 0 0 1 -30 2)" width="83.57177734375" x="943" y="47"/></g><g><rect fill="#ffffff" height="40" stroke="none" transform="matrix(1 0 0 1 -30 2)" width="83.57177734375" x="936" y="40"/></g><g><path d=" M 906 42 L 989.57177734375 42 L 989.57177734375 82 L 906 82 L 906 42 Z Z" fill="none" paint-order="fill stroke markers" stroke="#000000" stroke-dasharray="" stroke-miterlimit="10"/></g><g><g><path fill="none" stroke="none"/><text dominant-baseline="central" fill="#000000" font-family="Arial" font-size="13px" font-style="normal" font-weight="bold" stroke="none" text-anchor="middle" text-decoration="undefined" transform="matrix(1 0 0 1 -30 2)" x="978.285888671875" y="53.5">Educator2</text></g></g><g><path d=" M 948.5 83 L 948.5 482" fill="none" paint-order="fill stroke markers" stroke="#000000" stroke-dasharray="3" stroke-miterlimit="10"/></g><g><path d=" M 26 98 L 255 98 L 265 108 L 265 135 L 26 135 L 26 98" fill="#C39898" paint-order="stroke fill markers" stroke="none"/></g><g><path d=" M 26 98 L 255 98 L 265 108 L 265 135 L 26 135 L 26 98 L 26 98" fill="none" paint-order="fill stroke markers" stroke="#000000" stroke-dasharray="" stroke-miterlimit="10"/></g><g><path d=" M 255 98 L 255 108 L 265 108 L 255 98" fill="none" paint-order="fill stroke markers" stroke="#000000" stroke-dasharray="" stroke-miterlimit="10"/></g><g><g><path fill="none" stroke="none"/><text dominant-baseline="text-before-edge" fill="#000000" font-family="Arial" font-size="13px" font-style="normal" font-weight="normal" stroke="none" text-anchor="start" text-decoration="undefined" transform="matrix(1 0 0 1 -30 2)" x="61" y="101">The Educator is logged in the system</text><text dominant-baseline="text-before-edge" fill="#000000" font-family="Arial" font-size="13px" font-style="normal" font-weight="normal" stroke="none" text-anchor="start" text-decoration="undefined" transform="matrix(1 0 0 1 -30 2)" x="61" y="114">and is managing a tournament</text></g></g><g><path d=" M 97 162 L 663 162" fill="none" paint-order="fill stroke markers" stroke="#000000" stroke-dasharray="" stroke-miterlimit="10"/></g><g><path d=" M 652.8373251423759 166.209517756016 L 663 162 L 652.8373251423758 157.790482243984" fill="#000000" paint-order="stroke fill markers" stroke="none"/></g><g><path d=" M 652.8373251423759 166.209517756016 L 663 162 L 652.8373251423758 157.790482243984 L 652.8373251423759 166.209517756016" fill="none" paint-order="fill stroke markers" stroke="#000000" stroke-dasharray="" stroke-miterlimit="10"/></g><g><rect fill="#ffffff" height="13" stroke="none" transform="matrix(1 0 0 1 -30 2)" width="208.09521484375" x="306" y="144"/></g><g><g><path fill="none" stroke="none"/><text dominant-baseline="central" fill="#000000" font-family="Arial" font-size="13px" font-style="normal" font-weight="normal" stroke="none" text-anchor="middle" text-decoration="undefined" transform="matrix(1 0 0 1 -30 2)" x="410.047607421875" y="150.5">1 : selectTournament(tournamentID)</text></g></g><g><rect fill="#ffffff" height="28" stroke="none" transform="matrix(1 0 0 1 -30 2)" width="14" x="693" y="160"/></g><g><path d=" M 663 162 L 677 162 L 677 190 L 663 190 L 663 162 Z Z" fill="none" paint-order="fill stroke markers" stroke="#000000" stroke-dasharray="" stroke-miterlimit="10"/></g><g><path d=" M 670 202 L 97 202" fill="none" paint-order="fill stroke markers" stroke="#000000" stroke-dasharray="3" stroke-miterlimit="10"/></g><g><path d=" M 107.16267485762415 197.790482243984 L 97 202 L 107.16267485762415 206.209517756016" fill="none" paint-order="fill stroke markers" stroke="#000000" stroke-dasharray="" stroke-miterlimit="10"/></g><g><rect fill="#ffffff" height="13" stroke="none" transform="matrix(1 0 0 1 -30 2)" width="202.2998046875" x="311" y="204"/></g><g><g><path fill="none" stroke="none"/><text dominant-baseline="central" fill="#000000" font-family="Arial" font-size="13px" font-style="normal" font-weight="normal" stroke="none" text-anchor="middle" text-decoration="undefined" transform="matrix(1 0 0 1 -30 2)" x="412.14990234375" y="210.5">2 : show(tournamentScreen)</text></g></g><g><path d=" M 97 258 L 663 258" fill="none" paint-order="fill stroke markers" stroke="#000000" stroke-dasharray="" stroke-miterlimit="10"/></g><g><path d=" M 652.8373251423759 262.209517756016 L 663 258 L 652.8373251423758 253.790482243984" fill="#000000" paint-order="stroke fill markers" stroke="none"/></g><g><path d=" M 652.8373251423759 262.209517756016 L 663 258 L 652.8373251423758 253.790482243984 L 652.8373251423759 262.209517756016" fill="none" paint-order="fill stroke markers" stroke="#000000" stroke-dasharray="" stroke-miterlimit="10"/></g><g><rect fill="#ffffff" height="13" stroke="none" transform="matrix(1 0 0 1 -30 2)" width="158.234375" x="331" y="240"/></g><g><g><path fill="none" stroke="none"/><text dominant-baseline="central" fill="#000000" font-family="Arial" font-size="13px" font-style="normal" font-weight="normal" stroke="none" text-anchor="middle" text-decoration="undefined" transform="matrix(1 0 0 1 -30 2)" x="410.1171875" y="246.5">3 : addEducator()</text></g></g><g><rect fill="#ffffff" height="32" stroke="none" transform="matrix(1 0 0 1 -30 2)" width="14" x="693" y="256"/></g><g><path d=" M 663 258 L 677 258 L 677 290 L 663 290 L 663 258 Z Z" fill="none" paint-order="fill stroke markers" stroke="#000000" stroke-dasharray="" stroke-miterlimit="10"/></g><g><path d=" M 670 290 L 97 290" fill="none" paint-order="fill stroke markers" stroke="#000000" stroke-dasharray="3" stroke-miterlimit="10"/></g><g><path d=" M 107.16267485762415 285.790482243984 L 97 290 L 107.16267485762415 294.209517756016" fill="none" paint-order="fill stroke markers" stroke="#000000" stroke-dasharray="" stroke-miterlimit="10"/></g><g><rect fill="#ffffff" height="13" stroke="none" transform="matrix(1 0 0 1 -30 2)" width="129.33349609375" x="348" y="292"/></g><g><g><path fill="none" stroke="none"/><text dominant-baseline="central" fill="#000000" font-family="Arial" font-size="13px" font-style="normal" font-weight="normal" stroke="none" text-anchor="middle" text-decoration="undefined" transform="matrix(1 0 0 1 -30 2)" x="412.666748046875" y="298.5">4 : show(educatorList)</text></g></g><g><path d=" M 97 362 L 663 362" fill="none" paint-order="fill stroke markers" stroke="#000000" stroke-dasharray="" stroke-miterlimit="10"/></g><g><path d=" M 652.8373251423759 366.209517756016 L 663 362 L 652.8373251423758 357.790482243984" fill="#000000" paint-order="stroke fill markers" stroke="none"/></g><g><path d=" M 652.8373251423759 366.209517756016 L 663 362 L 652.8373251423758 357.790482243984 L 652.8373251423759 366.209517756016" fill="none" paint-order="fill stroke markers" stroke="#000000" stroke-dasharray="" stroke-miterlimit="10"/></g><g><rect fill="#ffffff" height="13" stroke="none" transform="matrix(1 0 0 1 -30 2)" width="176.30615234375" x="322" y="344"/></g><g><g><path fill="none" stroke="none"/><text dominant-baseline="central" fill="#000000" font-family="Arial" font-size="13px" font-style="normal" font-weight="normal" stroke="none" text-anchor="middle" text-decoration="undefined" transform="matrix(1 0 0 1 -30 2)" x="410.153076171875" y="350.5">5 : selectEducator(educatorID)</text></g></g><g><rect fill="#ffffff" height="28" stroke="none" transform="matrix(1 0 0 1 -30 2)" width="14" x="693" y="360"/></g><g><path d=" M 663 362 L 677 362 L 677 390 L 663 390 L 663 362 Z Z" fill="none" paint-order="fill stroke markers" stroke="#000000" stroke-dasharray="" stroke-miterlimit="10"/></g><g><path d=" M 677 374 L 948 374" fill="none" paint-order="fill stroke markers" stroke="#000000" stroke-dasharray="" stroke-miterlimit="10"/></g><g><path d=" M 937.8373251423759 378.209517756016 L 948 374 L 937.8373251423758 369.790482243984" fill="none" paint-order="fill stroke markers" stroke="#000000" stroke-dasharray="" stroke-miterlimit="10"/></g><g><rect fill="#ffffff" height="13" stroke="none" transform="matrix(1 0 0 1 -30 2)" width="119.2216796875" x="783" y="356"/></g><g><g><path fill="none" stroke="none"/><text dominant-baseline="central" fill="#000000" font-family="Arial" font-size="13px" font-style="normal" font-weight="normal" stroke="none" text-anchor="middle" text-decoration="undefined" transform="matrix(1 0 0 1 -30 2)" x="842.61083984375" y="362.5">6 : sendNotification()</text></g></g><g><path d=" M 670 410 L 97 410" fill="none" paint-order="fill stroke markers" stroke="#000000" stroke-dasharray="3" stroke-miterlimit="10"/></g><g><path d=" M 107.16267485762415 405.790482243984 L 97 410 L 107.16267485762415 414.209517756016" fill="none" paint-order="fill stroke markers" stroke="#000000" stroke-dasharray="" stroke-miterlimit="10"/></g><g><rect fill="#ffffff" height="13" stroke="none" transform="matrix(1 0 0 1 -30 2)" width="152.45166015625" x="336" y="412"/></g><g><g><path fill="none" stroke="none"/><text dominant-baseline="central" fill="#000000" font-family="Arial" font-size="13px" font-style="normal" font-weight="normal" stroke="none" text-anchor="middle" text-decoration="undefined" transform="matrix(1 0 0 1 -30 2)" x="412.225830078125" y="418.5">7 : show(successScreen)</text></g></g></g></svg>