<?xml version="1.0" encoding="UTF-8" standalone="no"?><svg xmlns="http://www.w3.org/2000/svg" xmlns:xlink="http://www.w3.org/1999/xlink" height="828" version="1.1" width="1028"><defs/><g><g><path d=" M 10 10 L 1018 10 L 1018 818 L 10 818 L 10 10" fill="none" paint-order="fill stroke markers" stroke="#000000" stroke-dasharray="" stroke-miterlimit="10"/></g><g><path d=" M 10 10 L 10 33 L 229.04248046875 33 L 240.54248046875 21.5 L 240.54248046875 10 L 10 10" fill="#ffffff" paint-order="stroke fill markers" stroke="none"/></g><g><path d=" M 10 10 L 10 33 L 229.04248046875 33 L 240.54248046875 21.5 L 240.54248046875 10 L 10 10 L 10 10" fill="none" paint-order="fill stroke markers" stroke="#000000" stroke-dasharray="" stroke-miterlimit="10"/></g><g><g><path fill="none" stroke="none"/><text dominant-baseline="central" fill="#000000" font-family="Arial" font-size="13px" font-style="normal" font-weight="normal" stroke="none" text-anchor="middle" text-decoration="undefined" transform="matrix(1 0 0 1 -30 2)" x="159.38623046875" y="19.5">[UC3] - Educator creates a battle</text></g></g><g><g><path fill="none" stroke="none"/><text dominant-baseline="central" fill="#000000" font-family="Arial" font-size="13px" font-style="normal" font-weight="bold" stroke="none" text-anchor="middle" text-decoration="undefined" transform="matrix(1 0 0 1 -30 2)" x="51.864990234375" y="19.5">sd</text></g></g><g><rect fill="#C0C0C0" fill-opacity="0.2" height="40" stroke="none" transform="matrix(1 0 0 1 -30 2)" width="76.341796875" x="95" y="47"/></g><g><rect fill="#ffffff" height="40" stroke="none" transform="matrix(1 0 0 1 -30 2)" width="76.341796875" x="88" y="40"/></g><g><path d=" M 58 42 L 134.341796875 42 L 134.341796875 82 L 58 82 L 58 42 Z Z" fill="none" paint-order="fill stroke markers" stroke="#000000" stroke-dasharray="" stroke-miterlimit="10"/></g><g><g><path fill="none" stroke="none"/><text dominant-baseline="central" fill="#000000" font-family="Arial" font-size="13px" font-style="normal" font-weight="bold" stroke="none" text-anchor="middle" text-decoration="undefined" transform="matrix(1 0 0 1 -30 2)" x="126.6708984375" y="53.5">Educator</text></g></g><g><path d=" M 96.5 83 L 96.5 793" fill="none" paint-order="fill stroke markers" stroke="#000000" stroke-dasharray="3" stroke-miterlimit="10"/></g><g><rect fill="#C0C0C0" fill-opacity="0.2" height="40" stroke="none" transform="matrix(1 0 0 1 -30 2)" width="72.736328125" x="671" y="47"/></g><g><rect fill="#ffffff" height="40" stroke="none" transform="matrix(1 0 0 1 -30 2)" width="72.736328125" x="664" y="40"/></g><g><path d=" M 634 42 L 706.736328125 42 L 706.736328125 82 L 634 82 L 634 42 Z Z" fill="none" paint-order="fill stroke markers" stroke="#000000" stroke-dasharray="" stroke-miterlimit="10"/></g><g><g><path fill="none" stroke="none"/><text dominant-baseline="central" fill="#000000" font-family="Arial" font-size="13px" font-style="normal" font-weight="bold" stroke="none" text-anchor="middle" text-decoration="undefined" transform="matrix(1 0 0 1 -30 2)" x="700.8681640625" y="53.5">System</text></g></g><g><path d=" M 670.5 83 L 670.5 785" fill="none" paint-order="fill stroke markers" stroke="#000000" stroke-dasharray="3" stroke-miterlimit="10"/></g><g><rect fill="#C0C0C0" fill-opacity="0.2" height="40" stroke="none" transform="matrix(1 0 0 1 -30 2)" width="75.61181640625" x="943" y="47"/></g><g><rect fill="#ffffff" height="40" stroke="none" transform="matrix(1 0 0 1 -30 2)" width="75.61181640625" x="936" y="40"/></g><g><path d=" M 906 42 L 981.61181640625 42 L 981.61181640625 82 L 906 82 L 906 42 Z Z" fill="none" paint-order="fill stroke markers" stroke="#000000" stroke-dasharray="" stroke-miterlimit="10"/></g><g><g><path fill="none" stroke="none"/><text dominant-baseline="central" fill="#000000" font-family="Arial" font-size="13px" font-style="normal" font-weight="bold" stroke="none" text-anchor="middle" text-decoration="undefined" transform="matrix(1 0 0 1 -30 2)" x="974.305908203125" y="53.5">Students</text></g></g><g><path d=" M 944.5 83 L 944.5 660" fill="none" paint-order="fill stroke markers" stroke="#000000" stroke-dasharray="3" stroke-miterlimit="10"/></g><g><path d=" M 34 98 L 191 98 L 201 108 L 201 148 L 34 148 L 34 98" fill="#C39898" paint-order="stroke fill markers" stroke="none"/></g><g><path d=" M 34 98 L 191 98 L 201 108 L 201 148 L 34 148 L 34 98 L 34 98" fill="none" paint-order="fill stroke markers" stroke="#000000" stroke-dasharray="" stroke-miterlimit="10"/></g><g><path d=" M 191 98 L 191 108 L 201 108 L 191 98" fill="none" paint-order="fill stroke markers" stroke="#000000" stroke-dasharray="" stroke-miterlimit="10"/></g><g><g><path fill="none" stroke="none"/><text dominant-baseline="text-before-edge" fill="#000000" font-family="Arial" font-size="13px" font-style="normal" font-weight="normal" stroke="none" text-anchor="start" text-decoration="undefined" transform="matrix(1 0 0 1 -30 2)" x="69" y="101">The Educator is logged in</text><text dominant-baseline="text-before-edge" fill="#000000" font-family="Arial" font-size="13px" font-style="normal" font-weight="normal" stroke="none" text-anchor="start" text-decoration="undefined" transform="matrix(1 0 0 1 -30 2)" x="69" y="114">the system and is</text><text dominant-baseline="text-before-edge" fill="#000000" font-family="Arial" font-size="13px" font-style="normal" font-weight="normal" stroke="none" text-anchor="start" text-decoration="undefined" transform="matrix(1 0 0 1 -30 2)" x="69" y="127">managing a tournament</text></g></g><g><path d=" M 97 178 L 663 178" fill="none" paint-order="fill stroke markers" stroke="#000000" stroke-dasharray="" stroke-miterlimit="10"/></g><g><path d=" M 652.8373251423759 182.209517756016 L 663 178 L 652.8373251423758 173.790482243984" fill="#000000" paint-order="stroke fill markers" stroke="none"/></g><g><path d=" M 652.8373251423759 182.209517756016 L 663 178 L 652.8373251423758 173.790482243984 L 652.8373251423759 182.209517756016" fill="none" paint-order="fill stroke markers" stroke="#000000" stroke-dasharray="" stroke-miterlimit="10"/></g><g><rect fill="#ffffff" height="13" stroke="none" transform="matrix(1 0 0 1 -30 2)" width="208.09521484375" x="306" y="160"/></g><g><g><path fill="none" stroke="none"/><text dominant-baseline="central" fill="#000000" font-family="Arial" font-size="13px" font-style="normal" font-weight="normal" stroke="none" text-anchor="middle" text-decoration="undefined" transform="matrix(1 0 0 1 -30 2)" x="410.047607421875" y="166.5">1 : selectTournament(tournamentID)</text></g></g><g><rect fill="#ffffff" height="28" stroke="none" transform="matrix(1 0 0 1 -30 2)" width="14" x="693" y="176"/></g><g><path d=" M 663 178 L 677 178 L 677 206 L 663 206 L 663 178 Z Z" fill="none" paint-order="fill stroke markers" stroke="#000000" stroke-dasharray="" stroke-miterlimit="10"/></g><g><path d=" M 670 210 L 97 210" fill="none" paint-order="fill stroke markers" stroke="#000000" stroke-dasharray="3" stroke-miterlimit="10"/></g><g><path d=" M 107.16267485762415 205.790482243984 L 97 210 L 107.16267485762415 214.209517756016" fill="none" paint-order="fill stroke markers" stroke="#000000" stroke-dasharray="" stroke-miterlimit="10"/></g><g><rect fill="#ffffff" height="13" stroke="none" transform="matrix(1 0 0 1 -30 2)" width="202.2998046875" x="311" y="212"/></g><g><g><path fill="none" stroke="none"/><text dominant-baseline="central" fill="#000000" font-family="Arial" font-size="13px" font-style="normal" font-weight="normal" stroke="none" text-anchor="middle" text-decoration="undefined" transform="matrix(1 0 0 1 -30 2)" x="412.14990234375" y="218.5">2 : show(tournamentScreen)</text></g></g><g><path d=" M 97 274 L 663 274" fill="none" paint-order="fill stroke markers" stroke="#000000" stroke-dasharray="" stroke-miterlimit="10"/></g><g><path d=" M 652.8373251423759 278.209517756016 L 663 274 L 652.8373251423758 269.790482243984" fill="#000000" paint-order="stroke fill markers" stroke="none"/></g><g><path d=" M 652.8373251423759 278.209517756016 L 663 274 L 652.8373251423758 269.790482243984 L 652.8373251423759 278.209517756016" fill="none" paint-order="fill stroke markers" stroke="#000000" stroke-dasharray="" stroke-miterlimit="10"/></g><g><rect fill="#ffffff" height="13" stroke="none" transform="matrix(1 0 0 1 -30 2)" width="96.09716796875" x="362" y="256"/></g><g><g><path fill="none" stroke="none"/><text dominant-baseline="central" fill="#000000" font-family="Arial" font-size="13px" font-style="normal" font-weight="normal" stroke="none" text-anchor="middle" text-decoration="undefined" transform="matrix(1 0 0 1 -30 2)" x="410.048583984375" y="262.5">3 : createBattle()</text></g></g><g><rect fill="#ffffff" height="28" stroke="none" transform="matrix(1 0 0 1 -30 2)" width="14" x="693" y="272"/></g><g><path d=" M 663 274 L 677 274 L 677 302 L 663 302 L 663 274 Z Z" fill="none" paint-order="fill stroke markers" stroke="#000000" stroke-dasharray="" stroke-miterlimit="10"/></g><g><path d=" M 670 310 L 97 310" fill="none" paint-order="fill stroke markers" stroke="#000000" stroke-dasharray="3" stroke-miterlimit="10"/></g><g><path d=" M 107.16267485762415 305.790482243984 L 97 310 L 107.16267485762415 314.209517756016" fill="none" paint-order="fill stroke markers" stroke="#000000" stroke-dasharray="" stroke-miterlimit="10"/></g><g><rect fill="#ffffff" height="13" stroke="none" transform="matrix(1 0 0 1 -30 2)" width="168.33984375" x="328" y="312"/></g><g><g><path fill="none" stroke="none"/><text dominant-baseline="central" fill="#000000" font-family="Arial" font-size="13px" font-style="normal" font-weight="normal" stroke="none" text-anchor="middle" text-decoration="undefined" transform="matrix(1 0 0 1 -30 2)" x="412.169921875" y="318.5">4 : show(battleCreationForm)</text></g></g><g><path d=" M 97 378 L 663 378" fill="none" paint-order="fill stroke markers" stroke="#000000" stroke-dasharray="" stroke-miterlimit="10"/></g><g><path d=" M 652.8373251423759 382.209517756016 L 663 378 L 652.8373251423758 373.790482243984" fill="#000000" paint-order="stroke fill markers" stroke="none"/></g><g><path d=" M 652.8373251423759 382.209517756016 L 663 378 L 652.8373251423758 373.790482243984 L 652.8373251423759 382.209517756016" fill="none" paint-order="fill stroke markers" stroke="#000000" stroke-dasharray="" stroke-miterlimit="10"/></g><g><rect fill="#ffffff" height="13" stroke="none" transform="matrix(1 0 0 1 -30 2)" width="165.46435546875" x="328" y="360"/></g><g><g><path fill="none" stroke="none"/><text dominant-baseline="central" fill="#000000" font-family="Arial" font-size="13px" font-style="normal" font-weight="normal" stroke="none" text-anchor="middle" text-decoration="undefined" transform="matrix(1 0 0 1 -30 2)" x="410.732177734375" y="366.5">5 : submit(battleData)</text></g></g><g><rect fill="#ffffff" height="28" stroke="none" transform="matrix(1 0 0 1 -30 2)" width="14" x="693" y="376"/></g><g><path d=" M 663 378 L 677 378 L 677 406 L 663 406 L 663 378 Z Z" fill="none" paint-order="fill stroke markers" stroke="#000000" stroke-dasharray="" stroke-miterlimit="10"/></g><g><path d=" M 677 394 L 707 394 L 707 414 L 677 414" fill="none" paint-order="fill stroke markers" stroke="#000000" stroke-dasharray="" stroke-miterlimit="10"/></g><g><path d=" M 687.1626748576241 409.790482243984 L 677 414 L 687.1626748576241 418.209517756016" fill="#000000" paint-order="stroke fill markers" stroke="none"/></g><g><path d=" M 687.1626748576241 409.790482243984 L 677 414 L 687.1626748576241 418.209517756016 L 687.1626748576241 409.790482243984" fill="none" paint-order="fill stroke markers" stroke="#000000" stroke-dasharray="" stroke-miterlimit="10"/></g><g><rect fill="#ffffff" height="13" stroke="none" transform="matrix(1 0 0 1 -30 2)" width="181.365234375" x="712" y="376"/></g><g><g><path fill="none" stroke="none"/><text dominant-baseline="central" fill="#000000" font-family="Arial" font-size="13px" font-style="normal" font-weight="normal" stroke="none" text-anchor="middle" text-decoration="undefined" transform="matrix(1 0 0 1 -30 2)" x="802.6826171875" y="382.5">6 : checkData(tournamentData)</text></g></g><g><rect fill="#ffffff" height="55" stroke="none" transform="matrix(1 0 0 1 -30 2)" width="14" x="693" y="412"/></g><g><path d=" M 663 414 L 677 414 L 677 469 L 663 469 L 663 414 Z Z" fill="none" paint-order="fill stroke markers" stroke="#000000" stroke-dasharray="" stroke-miterlimit="10"/></g><g><path d=" M 670 506 L 97 506" fill="none" paint-order="fill stroke markers" stroke="#000000" stroke-dasharray="3" stroke-miterlimit="10"/></g><g><path d=" M 107.16267485762415 501.790482243984 L 97 506 L 107.16267485762415 510.209517756016" fill="none" paint-order="fill stroke markers" stroke="#000000" stroke-dasharray="" stroke-miterlimit="10"/></g><g><rect fill="#ffffff" height="13" stroke="none" transform="matrix(1 0 0 1 -30 2)" width="36.84814453125" x="394" y="508"/></g><g><g><path fill="none" stroke="none"/><text dominant-baseline="central" fill="#000000" font-family="Arial" font-size="13px" font-style="normal" font-weight="normal" stroke="none" text-anchor="middle" text-decoration="undefined" transform="matrix(1 0 0 1 -30 2)" x="412.424072265625" y="514.5">7 : OK</text></g></g><g><path d=" M 97 586 L 663 586" fill="none" paint-order="fill stroke markers" stroke="#000000" stroke-dasharray="" stroke-miterlimit="10"/></g><g><path d=" M 652.8373251423759 590.209517756016 L 663 586 L 652.8373251423758 581.790482243984" fill="#000000" paint-order="stroke fill markers" stroke="none"/></g><g><path d=" M 652.8373251423759 590.209517756016 L 663 586 L 652.8373251423758 581.790482243984 L 652.8373251423759 590.209517756016" fill="none" paint-order="fill stroke markers" stroke="#000000" stroke-dasharray="" stroke-miterlimit="10"/></g><g><rect fill="#ffffff" height="13" stroke="none" transform="matrix(1 0 0 1 -30 2)" width="194.35888671875" x="311" y="559"/></g><g><g><path fill="none" stroke="none"/><text dominant-baseline="central" fill="#000000" font-family="Arial" font-size="13px" font-style="normal" font-weight="normal" stroke="none" text-anchor="middle" text-decoration="undefined" transform="matrix(1 0 0 1 -30 2)" x="408.179443359375" y="565.5">8 : confirmBattleCreation()</text></g></g><g><rect fill="#ffffff" height="28" stroke="none" transform="matrix(1 0 0 1 -30 2)" width="14" x="693" y="584"/></g><g><path d=" M 663 586 L 677 586 L 677 614 L 663 614 L 663 586 Z Z" fill="none" paint-order="fill stroke markers" stroke="#000000" stroke-dasharray="" stroke-miterlimit="10"/></g><g><path d=" M 677 610 L 937 610" fill="none" paint-order="fill stroke markers" stroke="#000000" stroke-dasharray="" stroke-miterlimit="10"/></g><g><path d=" M 926.8373251423759 614.209517756016 L 937 610 L 926.8373251423758 605.790482243984" fill="#000000" paint-order="stroke fill markers" stroke="none"/></g><g><path d=" M 926.8373251423759 614.209517756016 L 937 610 L 926.8373251423758 605.790482243984 L 926.8373251423759 614.209517756016" fill="none" paint-order="fill stroke markers" stroke="#000000" stroke-dasharray="" stroke-miterlimit="10"/></g><g><rect fill="#ffffff" height="13" stroke="none" transform="matrix(1 0 0 1 -30 2)" width="219.67333984375" x="728" y="592"/></g><g><g><path fill="none" stroke="none"/><text dominant-baseline="central" fill="#000000" font-family="Arial" font-size="13px" font-style="normal" font-weight="normal" stroke="none" text-anchor="middle" text-decoration="undefined" transform="matrix(1 0 0 1 -30 2)" x="837.836669921875" y="598.5">9 : sendNotification(battleData)</text></g></g><g><rect fill="#ffffff" height="28" stroke="none" transform="matrix(1 0 0 1 -30 2)" width="14" x="967" y="608"/></g><g><path d=" M 937 610 L 951 610 L 951 638 L 937 638 L 937 610 Z Z" fill="none" paint-order="fill stroke markers" stroke="#000000" stroke-dasharray="" stroke-miterlimit="10"/></g><g><path d=" M 670 658 L 97 658" fill="none" paint-order="fill stroke markers" stroke="#000000" stroke-dasharray="3" stroke-miterlimit="10"/></g><g><path d=" M 107.16267485762415 653.790482243984 L 97 658 L 107.16267485762415 662.209517756016" fill="none" paint-order="fill stroke markers" stroke="#000000" stroke-dasharray="" stroke-miterlimit="10"/></g><g><rect fill="#ffffff" height="13" stroke="none" transform="matrix(1 0 0 1 -30 2)" width="152.45166015625" x="336" y="660"/></g><g><g><path fill="none" stroke="none"/><text dominant-baseline="central" fill="#000000" font-family="Arial" font-size="13px" font-style="normal" font-weight="normal" stroke="none" text-anchor="middle" text-decoration="undefined" transform="matrix(1 0 0 1 -30 2)" x="412.225830078125" y="666.5">10 : show(successScreen)</text></g></g><g><path d=" M 670 762 L 97 762" fill="none" paint-order="fill stroke markers" stroke="#000000" stroke-dasharray="3" stroke-miterlimit="10"/></g><g><path d=" M 107.16267485762415 757.790482243984 L 97 762 L 107.16267485762415 766.209517756016" fill="none" paint-order="fill stroke markers" stroke="#000000" stroke-dasharray="" stroke-miterlimit="10"/></g><g><rect fill="#ffffff" height="13" stroke="none" transform="matrix(1 0 0 1 -30 2)" width="209.52978515625" x="311" y="736"/></g><g><g><path fill="none" stroke="none"/><text dominant-baseline="central" fill="#000000" font-family="Arial" font-size="13px" font-style="normal" font-weight="normal" stroke="none" text-anchor="middle" text-decoration="undefined" transform="matrix(1 0 0 1 -30 2)" x="415.764892578125" y="742.5">11 : show(battleCreationForm)</text></g></g><g><path d=" M 26 458 L 978 458 L 978 802 L 26 802 L 26 458" fill="none" paint-order="fill stroke markers" stroke="#000000" stroke-dasharray="" stroke-miterlimit="10"/></g><g><path d=" M 26 458 L 26 481 L 124.3798828125 481 L 135.8798828125 469.5 L 135.8798828125 458 L 26 458" fill="#ffffff" paint-order="stroke fill markers" stroke="none"/></g><g><path d=" M 26 458 L 26 481 L 124.3798828125 481 L 135.8798828125 469.5 L 135.8798828125 458 L 26 458 L 26 458" fill="none" paint-order="fill stroke markers" stroke="#000000" stroke-dasharray="" stroke-miterlimit="10"/></g><g><g><path fill="none" stroke="none"/><text dominant-baseline="central" fill="#000000" font-family="Arial" font-size="13px" font-style="normal" font-weight="normal" stroke="none" text-anchor="middle" text-decoration="undefined" transform="matrix(1 0 0 1 -30 2)" x="115.054931640625" y="467.5">data is valid</text></g></g><g><g><path fill="none" stroke="none"/><text dominant-baseline="central" fill="#000000" font-family="Arial" font-size="13px" font-style="normal" font-weight="bold" stroke="none" text-anchor="middle" text-decoration="undefined" transform="matrix(1 0 0 1 -30 2)" x="67.864990234375" y="467.5">alt</text></g></g><g><path d=" M 26 714 L 978 714" fill="none" paint-order="fill stroke markers" stroke="#000000" stroke-dasharray="10,3" stroke-miterlimit="10"/></g><g><g><path fill="none" stroke="none"/><text dominant-baseline="central" fill="#000000" font-family="Arial" font-size="13px" font-style="normal" font-weight="normal" stroke="none" text-anchor="middle" text-decoration="undefined" transform="matrix(1 0 0 1 -30 2)" x="91.535888671875" y="733.5">[else]</text></g></g></g></svg>