<?xml version="1.0" encoding="UTF-8" standalone="no"?><svg xmlns="http://www.w3.org/2000/svg" xmlns:xlink="http://www.w3.org/1999/xlink" height="588" version="1.1" width="1028"><defs/><g><g><path d=" M 10 10 L 1018 10 L 1018 578 L 10 578 L 10 10" fill="none" paint-order="fill stroke markers" stroke="#000000" stroke-dasharray="" stroke-miterlimit="10"/></g><g><path d=" M 10 10 L 10 33 L 309.9814453125 33 L 321.4814453125 21.5 L 321.4814453125 10 L 10 10" fill="#ffffff" paint-order="stroke fill markers" stroke="none"/></g><g><path d=" M 10 10 L 10 33 L 309.9814453125 33 L 321.4814453125 21.5 L 321.4814453125 10 L 10 10 L 10 10" fill="none" paint-order="fill stroke markers" stroke="#000000" stroke-dasharray="" stroke-miterlimit="10"/></g><g><g><path fill="none" stroke="none"/><text dominant-baseline="central" fill="#000000" font-family="Arial" font-size="13px" font-style="normal" font-weight="normal" stroke="none" text-anchor="middle" text-decoration="undefined" transform="matrix(1 0 0 1 -30 2)" x="199.855712890625" y="19.5">[UC4] - Educator assigns a grade for a solution</text></g></g><g><g><path fill="none" stroke="none"/><text dominant-baseline="central" fill="#000000" font-family="Arial" font-size="13px" font-style="normal" font-weight="bold" stroke="none" text-anchor="middle" text-decoration="undefined" transform="matrix(1 0 0 1 -30 2)" x="51.864990234375" y="19.5">sd</text></g></g><g><rect fill="#C0C0C0" fill-opacity="0.2" height="40" stroke="none" transform="matrix(1 0 0 1 -30 2)" width="76.341796875" x="95" y="47"/></g><g><rect fill="#ffffff" height="40" stroke="none" transform="matrix(1 0 0 1 -30 2)" width="76.341796875" x="88" y="40"/></g><g><path d=" M 58 42 L 134.341796875 42 L 134.341796875 82 L 58 82 L 58 42 Z Z" fill="none" paint-order="fill stroke markers" stroke="#000000" stroke-dasharray="" stroke-miterlimit="10"/></g><g><g><path fill="none" stroke="none"/><text dominant-baseline="central" fill="#000000" font-family="Arial" font-size="13px" font-style="normal" font-weight="bold" stroke="none" text-anchor="middle" text-decoration="undefined" transform="matrix(1 0 0 1 -30 2)" x="126.6708984375" y="53.5">Educator</text></g></g><g><path d=" M 96.5 83 L 96.5 562" fill="none" paint-order="fill stroke markers" stroke="#000000" stroke-dasharray="3" stroke-miterlimit="10"/></g><g><rect fill="#C0C0C0" fill-opacity="0.2" height="40" stroke="none" transform="matrix(1 0 0 1 -30 2)" width="72.736328125" x="671" y="47"/></g><g><rect fill="#ffffff" height="40" stroke="none" transform="matrix(1 0 0 1 -30 2)" width="72.736328125" x="664" y="40"/></g><g><path d=" M 634 42 L 706.736328125 42 L 706.736328125 82 L 634 82 L 634 42 Z Z" fill="none" paint-order="fill stroke markers" stroke="#000000" stroke-dasharray="" stroke-miterlimit="10"/></g><g><g><path fill="none" stroke="none"/><text dominant-baseline="central" fill="#000000" font-family="Arial" font-size="13px" font-style="normal" font-weight="bold" stroke="none" text-anchor="middle" text-decoration="undefined" transform="matrix(1 0 0 1 -30 2)" x="700.8681640625" y="53.5">System</text></g></g><g><path d=" M 670.5 83 L 670.5 562" fill="none" paint-order="fill stroke markers" stroke="#000000" stroke-dasharray="3" stroke-miterlimit="10"/></g><g><rect fill="#C0C0C0" fill-opacity="0.2" height="40" stroke="none" transform="matrix(1 0 0 1 -30 2)" width="75.61181640625" x="943" y="47"/></g><g><rect fill="#ffffff" height="40" stroke="none" transform="matrix(1 0 0 1 -30 2)" width="75.61181640625" x="936" y="40"/></g><g><path d=" M 906 42 L 981.61181640625 42 L 981.61181640625 82 L 906 82 L 906 42 Z Z" fill="none" paint-order="fill stroke markers" stroke="#000000" stroke-dasharray="" stroke-miterlimit="10"/></g><g><g><path fill="none" stroke="none"/><text dominant-baseline="central" fill="#000000" font-family="Arial" font-size="13px" font-style="normal" font-weight="bold" stroke="none" text-anchor="middle" text-decoration="undefined" transform="matrix(1 0 0 1 -30 2)" x="974.305908203125" y="53.5">Students</text></g></g><g><path d=" M 944.5 83 L 944.5 562" fill="none" paint-order="fill stroke markers" stroke="#000000" stroke-dasharray="3" stroke-miterlimit="10"/></g><g><path d=" M 34 98 L 287 98 L 297 108 L 297 150 L 34 150 L 34 98" fill="#C39898" paint-order="stroke fill markers" stroke="none"/></g><g><path d=" M 34 98 L 287 98 L 297 108 L 297 150 L 34 150 L 34 98 L 34 98" fill="none" paint-order="fill stroke markers" stroke="#000000" stroke-dasharray="" stroke-miterlimit="10"/></g><g><path d=" M 287 98 L 287 108 L 297 108 L 287 98" fill="none" paint-order="fill stroke markers" stroke="#000000" stroke-dasharray="" stroke-miterlimit="10"/></g><g><g><path fill="none" stroke="none"/><text dominant-baseline="text-before-edge" fill="#000000" font-family="Arial" font-size="13px" font-style="normal" font-weight="normal" stroke="none" text-anchor="start" text-decoration="undefined" transform="matrix(1 0 0 1 -30 2)" x="69" y="101">The Educator is logged in the system and is</text><text dominant-baseline="text-before-edge" fill="#000000" font-family="Arial" font-size="13px" font-style="normal" font-weight="normal" stroke="none" text-anchor="start" text-decoration="undefined" transform="matrix(1 0 0 1 -30 2)" x="69" y="114">in a battle’s management screen. The battle</text><text dominant-baseline="text-before-edge" fill="#000000" font-family="Arial" font-size="13px" font-style="normal" font-weight="normal" stroke="none" text-anchor="start" text-decoration="undefined" transform="matrix(1 0 0 1 -30 2)" x="69" y="127">has ended.</text></g></g><g><g><path fill="none" stroke="none"/></g></g><g><path d=" M 97 210 L 663 210" fill="none" paint-order="fill stroke markers" stroke="#000000" stroke-dasharray="" stroke-miterlimit="10"/></g><g><path d=" M 652.8373251423759 214.209517756016 L 663 210 L 652.8373251423758 205.790482243984" fill="#000000" paint-order="stroke fill markers" stroke="none"/></g><g><path d=" M 652.8373251423759 214.209517756016 L 663 210 L 652.8373251423758 205.790482243984 L 652.8373251423759 214.209517756016" fill="none" paint-order="fill stroke markers" stroke="#000000" stroke-dasharray="" stroke-miterlimit="10"/></g><g><rect fill="#ffffff" height="13" stroke="none" transform="matrix(1 0 0 1 -30 2)" width="208.09521484375" x="306" y="192"/></g><g><g><path fill="none" stroke="none"/><text dominant-baseline="central" fill="#000000" font-family="Arial" font-size="13px" font-style="normal" font-weight="normal" stroke="none" text-anchor="middle" text-decoration="undefined" transform="matrix(1 0 0 1 -30 2)" x="410.047607421875" y="198.5">1 : evaluateSubmissions()</text></g></g><g><rect fill="#ffffff" height="47" stroke="none" transform="matrix(1 0 0 1 -30 2)" width="14" x="693" y="208"/></g><g><path d=" M 663 210 L 677 210 L 677 257 L 663 257 L 663 210 Z Z" fill="none" paint-order="fill stroke markers" stroke="#000000" stroke-dasharray="" stroke-miterlimit="10"/></g><g><path d=" M 663 242 L 97 242" fill="none" paint-order="fill stroke markers" stroke="#000000" stroke-dasharray="3" stroke-miterlimit="10"/></g><g><path d=" M 107.16267485762415 237.790482243984 L 97 242 L 107.16267485762415 246.209517756016" fill="none" paint-order="fill stroke markers" stroke="#000000" stroke-dasharray="" stroke-miterlimit="10"/></g><g><rect fill="#ffffff" height="13" stroke="none" transform="matrix(1 0 0 1 -30 2)" width="202.2998046875" x="316" y="224"/></g><g><g><path fill="none" stroke="none"/><text dominant-baseline="central" fill="#000000" font-family="Arial" font-size="13px" font-style="normal" font-weight="normal" stroke="none" text-anchor="middle" text-decoration="undefined" transform="matrix(1 0 0 1 -30 2)" x="417.14990234375" y="230.5">2 : show(submissionsList)</text></g></g><g><path d=" M 97 298 L 663 298" fill="none" paint-order="fill stroke markers" stroke="#000000" stroke-dasharray="" stroke-miterlimit="10"/></g><g><path d=" M 652.8373251423759 302.209517756016 L 663 298 L 652.8373251423758 293.790482243984" fill="#000000" paint-order="stroke fill markers" stroke="none"/></g><g><path d=" M 652.8373251423759 302.209517756016 L 663 298 L 652.8373251423758 293.790482243984 L 652.8373251423759 302.209517756016" fill="none" paint-order="fill stroke markers" stroke="#000000" stroke-dasharray="" stroke-miterlimit="10"/></g><g><rect fill="#ffffff" height="13" stroke="none" transform="matrix(1 0 0 1 -30 2)" width="205.9052734375" x="308" y="280"/></g><g><g><path fill="none" stroke="none"/><text dominant-baseline="central" fill="#000000" font-family="Arial" font-size="13px" font-style="normal" font-weight="normal" stroke="none" text-anchor="middle" text-decoration="undefined" transform="matrix(1 0 0 1 -30 2)" x="410.95263671875" y="286.5">3 : selectSubmission(submissionID)</text></g></g><g><rect fill="#ffffff" height="28" stroke="none" transform="matrix(1 0 0 1 -30 2)" width="14" x="693" y="296"/></g><g><path d=" M 663 298 L 677 298 L 677 326 L 663 326 L 663 298 Z Z" fill="none" paint-order="fill stroke markers" stroke="#000000" stroke-dasharray="" stroke-miterlimit="10"/></g><g><path d=" M 670 346 L 97 346" fill="none" paint-order="fill stroke markers" stroke="#000000" stroke-dasharray="3" stroke-miterlimit="10"/></g><g><path d=" M 107.16267485762415 341.790482243984 L 97 346 L 107.16267485762415 350.209517756016" fill="none" paint-order="fill stroke markers" stroke="#000000" stroke-dasharray="" stroke-miterlimit="10"/></g><g><rect fill="#ffffff" height="13" stroke="none" transform="matrix(1 0 0 1 -30 2)" width="168.33984375" x="328" y="327"/></g><g><g><path fill="none" stroke="none"/><text dominant-baseline="central" fill="#000000" font-family="Arial" font-size="13px" font-style="normal" font-weight="normal" stroke="none" text-anchor="middle" text-decoration="undefined" transform="matrix(1 0 0 1 -30 2)" x="412.169921875" y="333.5">4 : show(submissionDetails)</text></g></g><g><path d=" M 97 402 L 663 402" fill="none" paint-order="fill stroke markers" stroke="#000000" stroke-dasharray="" stroke-miterlimit="10"/></g><g><path d=" M 652.8373251423759 406.209517756016 L 663 402 L 652.8373251423758 397.790482243984" fill="#000000" paint-order="stroke fill markers" stroke="none"/></g><g><path d=" M 652.8373251423759 406.209517756016 L 663 402 L 652.8373251423758 397.790482243984 L 652.8373251423759 406.209517756016" fill="none" paint-order="fill stroke markers" stroke="#000000" stroke-dasharray="" stroke-miterlimit="10"/></g><g><rect fill="#ffffff" height="13" stroke="none" transform="matrix(1 0 0 1 -30 2)" width="224.72607421875" x="298" y="384"/></g><g><g><path fill="none" stroke="none"/><text dominant-baseline="central" fill="#000000" font-family="Arial" font-size="13px" font-style="normal" font-weight="normal" stroke="none" text-anchor="middle" text-decoration="undefined" transform="matrix(1 0 0 1 -30 2)" x="410.363037109375" y="390.5">5 : evaluate(submissionID, grade)</text></g></g><g><rect fill="#ffffff" height="120" stroke="none" transform="matrix(1 0 0 1 -30 2)" width="14" x="693" y="400"/></g><g><path d=" M 663 402 L 677 402 L 677 522 L 663 522 L 663 402 Z Z" fill="none" paint-order="fill stroke markers" stroke="#000000" stroke-dasharray="" stroke-miterlimit="10"/></g><g><path d=" M 677 426 L 707 426 L 707 446 L 684 446" fill="none" paint-order="fill stroke markers" stroke="#000000" stroke-dasharray="" stroke-miterlimit="10"/></g><g><path d=" M 694.1626748576241 441.790482243984 L 684 446 L 694.1626748576241 450.209517756016" fill="#000000" paint-order="stroke fill markers" stroke="none"/></g><g><path d=" M 694.1626748576241 441.790482243984 L 684 446 L 694.1626748576241 450.209517756016 L 694.1626748576241 441.790482243984" fill="none" paint-order="fill stroke markers" stroke="#000000" stroke-dasharray="" stroke-miterlimit="10"/></g><g><rect fill="#ffffff" height="13" stroke="none" transform="matrix(1 0 0 1 -30 2)" width="200.1416015625" x="728" y="408"/></g><g><g><path fill="none" stroke="none"/><text dominant-baseline="central" fill="#000000" font-family="Arial" font-size="13px" font-style="normal" font-weight="normal" stroke="none" text-anchor="middle" text-decoration="undefined" transform="matrix(1 0 0 1 -30 2)" x="828.07080078125" y="414.5">6 : saveData(submissionID, grade)</text></g></g><g><rect fill="#ffffff" height="28" stroke="none" transform="matrix(1 0 0 1 -30 2)" width="14" x="700" y="444"/></g><g><path d=" M 670 446 L 684 446 L 684 474 L 670 474 L 670 446 Z Z" fill="none" paint-order="fill stroke markers" stroke="#000000" stroke-dasharray="" stroke-miterlimit="10"/></g><g><path d=" M 677 498 L 937 498" fill="none" paint-order="fill stroke markers" stroke="#000000" stroke-dasharray="" stroke-miterlimit="10"/></g><g><path d=" M 926.8373251423759 502.209517756016 L 937 498 L 926.8373251423758 493.790482243984" fill="#000000" paint-order="stroke fill markers" stroke="none"/></g><g><path d=" M 926.8373251423759 502.209517756016 L 937 498 L 926.8373251423758 493.790482243984 L 926.8373251423759 502.209517756016" fill="none" paint-order="fill stroke markers" stroke="#000000" stroke-dasharray="" stroke-miterlimit="10"/></g><g><rect fill="#ffffff" height="13" stroke="none" transform="matrix(1 0 0 1 -30 2)" width="219.67333984375" x="728" y="480"/></g><g><g><path fill="none" stroke="none"/><text dominant-baseline="central" fill="#000000" font-family="Arial" font-size="13px" font-style="normal" font-weight="normal" stroke="none" text-anchor="middle" text-decoration="undefined" transform="matrix(1 0 0 1 -30 2)" x="837.836669921875" y="486.5">7 : sendNotification(evaluationData)</text></g></g><g><rect fill="#ffffff" height="28" stroke="none" transform="matrix(1 0 0 1 -30 2)" width="14" x="967" y="496"/></g><g><path d=" M 937 498 L 951 498 L 951 526 L 937 526 L 937 498 Z Z" fill="none" paint-order="fill stroke markers" stroke="#000000" stroke-dasharray="" stroke-miterlimit="10"/></g></g></svg>