<?xml version="1.0" encoding="UTF-8" standalone="no"?><svg xmlns="http://www.w3.org/2000/svg" xmlns:xlink="http://www.w3.org/1999/xlink" height="524" version="1.1" width="1028"><defs/><g><g><path d=" M 10 10 L 1018 10 L 1018 514 L 10 514 L 10 10" fill="none" paint-order="fill stroke markers" stroke="#000000" stroke-dasharray="" stroke-miterlimit="10"/></g><g><path d=" M 10 10 L 10 33 L 252.890625 33 L 264.390625 21.5 L 264.390625 10 L 10 10" fill="#ffffff" paint-order="stroke fill markers" stroke="none"/></g><g><path d=" M 10 10 L 10 33 L 252.890625 33 L 264.390625 21.5 L 264.390625 10 L 10 10 L 10 10" fill="none" paint-order="fill stroke markers" stroke="#000000" stroke-dasharray="" stroke-miterlimit="10"/></g><g><g><path fill="none" stroke="none"/><text dominant-baseline="central" fill="#000000" font-family="Arial" font-size="13px" font-style="normal" font-weight="normal" stroke="none" text-anchor="middle" text-decoration="undefined" transform="matrix(1 0 0 1 -30 2)" x="171.310302734375" y="19.5">[UC5]  Educator closes a tournament</text></g></g><g><g><path fill="none" stroke="none"/><text dominant-baseline="central" fill="#000000" font-family="Arial" font-size="13px" font-style="normal" font-weight="bold" stroke="none" text-anchor="middle" text-decoration="undefined" transform="matrix(1 0 0 1 -30 2)" x="51.864990234375" y="19.5">sd</text></g></g><g><rect fill="#C0C0C0" fill-opacity="0.2" height="40" stroke="none" transform="matrix(1 0 0 1 -30 2)" width="76.341796875" x="95" y="47"/></g><g><rect fill="#ffffff" height="40" stroke="none" transform="matrix(1 0 0 1 -30 2)" width="76.341796875" x="88" y="40"/></g><g><path d=" M 58 42 L 134.341796875 42 L 134.341796875 82 L 58 82 L 58 42 Z Z" fill="none" paint-order="fill stroke markers" stroke="#000000" stroke-dasharray="" stroke-miterlimit="10"/></g><g><g><path fill="none" stroke="none"/><text dominant-baseline="central" fill="#000000" font-family="Arial" font-size="13px" font-style="normal" font-weight="bold" stroke="none" text-anchor="middle" text-decoration="undefined" transform="matrix(1 0 0 1 -30 2)" x="126.6708984375" y="53.5">Educator</text></g></g><g><path d=" M 96.5 83 L 96.5 482" fill="none" paint-order="fill stroke markers" stroke="#000000" stroke-dasharray="3" stroke-miterlimit="10"/></g><g><rect fill="#C0C0C0" fill-opacity="0.2" height="40" stroke="none" transform="matrix(1 0 0 1 -30 2)" width="72.736328125" x="671" y="47"/></g><g><rect fill="#ffffff" height="40" stroke="none" transform="matrix(1 0 0 1 -30 2)" width="72.736328125" x="664" y="40"/></g><g><path d=" M 634 42 L 706.736328125 42 L 706.736328125 82 L 634 82 L 634 42 Z Z" fill="none" paint-order="fill stroke markers" stroke="#000000" stroke-dasharray="" stroke-miterlimit="10"/></g><g><g><path fill="none" stroke="none"/><text dominant-baseline="central" fill="#000000" font-family="Arial" font-size="13px" font-style="normal" font-weight="bold" stroke="none" text-anchor="middle" text-decoration="undefined" transform="matrix(1 0 0 1 -30 2)" x="700.8681640625" y="53.5">System</text></g></g><g><path d=" M 670.5 83 L 670.5 482" fill="none" paint-order="fill stroke markers" stroke="#000000" stroke-dasharray="3" stroke-miterlimit="10"/></g><g><path d=" M 26 98 L 255 98 L 265 108 L 265 135 L 26 135 L 26 98" fill="#C39898" paint-order="stroke fill markers" stroke="none"/></g><g><path d=" M 26 98 L 255 98 L 265 108 L 265 135 L 26 135 L 26 98 L 26 98" fill="none" paint-order="fill stroke markers" stroke="#000000" stroke-dasharray="" stroke-miterlimit="10"/></g><g><path d=" M 255 98 L 255 108 L 265 108 L 255 98" fill="none" paint-order="fill stroke markers" stroke="#000000" stroke-dasharray="" stroke-miterlimit="10"/></g><g><g><path fill="none" stroke="none"/><text dominant-baseline="text-before-edge" fill="#000000" font-family="Arial" font-size="13px" font-style="normal" font-weight="normal" stroke="none" text-anchor="start" text-decoration="undefined" transform="matrix(1 0 0 1 -30 2)" x="61" y="101">The Educator is logged in the system</text><text dominant-baseline="text-before-edge" fill="#000000" font-family="Arial" font-size="13px" font-style="normal" font-weight="normal" stroke="none" text-anchor="start" text-decoration="undefined" transform="matrix(1 0 0 1 -30 2)" x="61" y="114">and is managing a tournament</text></g></g><g><path d=" M 97 170 L 663 170" fill="none" paint-order="fill stroke markers" stroke="#000000" stroke-dasharray="" stroke-miterlimit="10"/></g><g><path d=" M 652.8373251423759 174.209517756016 L 663 170 L 652.8373251423758 165.790482243984" fill="#000000" paint-order="stroke fill markers" stroke="none"/></g><g><path d=" M 652.8373251423759 174.209517756016 L 663 170 L 652.8373251423758 165.790482243984 L 652.8373251423759 174.209517756016" fill="none" paint-order="fill stroke markers" stroke="#000000" stroke-dasharray="" stroke-miterlimit="10"/></g><g><rect fill="#ffffff" height="13" stroke="none" transform="matrix(1 0 0 1 -30 2)" width="208.09521484375" x="306" y="152"/></g><g><g><path fill="none" stroke="none"/><text dominant-baseline="central" fill="#000000" font-family="Arial" font-size="13px" font-style="normal" font-weight="normal" stroke="none" text-anchor="middle" text-decoration="undefined" transform="matrix(1 0 0 1 -30 2)" x="410.047607421875" y="158.5">1 : selectTournament(tournamentID)</text></g></g><g><rect fill="#ffffff" height="35" stroke="none" transform="matrix(1 0 0 1 -30 2)" width="14" x="693" y="168"/></g><g><path d=" M 663 170 L 677 170 L 677 205 L 663 205 L 663 170 Z Z" fill="none" paint-order="fill stroke markers" stroke="#000000" stroke-dasharray="" stroke-miterlimit="10"/></g><g><path d=" M 663 194 L 97 194" fill="none" paint-order="fill stroke markers" stroke="#000000" stroke-dasharray="3" stroke-miterlimit="10"/></g><g><path d=" M 107.16267485762415 189.790482243984 L 97 194 L 107.16267485762415 198.209517756016" fill="none" paint-order="fill stroke markers" stroke="#000000" stroke-dasharray="" stroke-miterlimit="10"/></g><g><rect fill="#ffffff" height="13" stroke="none" transform="matrix(1 0 0 1 -30 2)" width="202.2998046875" x="308" y="196"/></g><g><g><path fill="none" stroke="none"/><text dominant-baseline="central" fill="#000000" font-family="Arial" font-size="13px" font-style="normal" font-weight="normal" stroke="none" text-anchor="middle" text-decoration="undefined" transform="matrix(1 0 0 1 -30 2)" x="409.14990234375" y="202.5">2 : show(tournamentScreen)</text></g></g><g><path d=" M 97 259 L 663 259" fill="none" paint-order="fill stroke markers" stroke="#000000" stroke-dasharray="" stroke-miterlimit="10"/></g><g><path d=" M 652.8373251423759 263.209517756016 L 663 259 L 652.8373251423758 254.790482243984" fill="#000000" paint-order="stroke fill markers" stroke="none"/></g><g><path d=" M 652.8373251423759 263.209517756016 L 663 259 L 652.8373251423758 254.790482243984 L 652.8373251423759 263.209517756016" fill="none" paint-order="fill stroke markers" stroke="#000000" stroke-dasharray="" stroke-miterlimit="10"/></g><g><rect fill="#ffffff" height="13" stroke="none" transform="matrix(1 0 0 1 -30 2)" width="204.4833984375" x="308" y="241"/></g><g><g><path fill="none" stroke="none"/><text dominant-baseline="central" fill="#000000" font-family="Arial" font-size="13px" font-style="normal" font-weight="normal" stroke="none" text-anchor="middle" text-decoration="undefined" transform="matrix(1 0 0 1 -30 2)" x="410.24169921875" y="247.5">3 : closeTournament(tournamentID)</text></g></g><g><rect fill="#ffffff" height="61" stroke="none" transform="matrix(1 0 0 1 -30 2)" width="14" x="693" y="257"/></g><g><path d=" M 663 259 L 677 259 L 677 320 L 663 320 L 663 259 Z Z" fill="none" paint-order="fill stroke markers" stroke="#000000" stroke-dasharray="" stroke-miterlimit="10"/></g><g><path d=" M 677 266 L 707 266 L 707 286 L 684 286" fill="none" paint-order="fill stroke markers" stroke="#000000" stroke-dasharray="" stroke-miterlimit="10"/></g><g><path d=" M 694.1626748576241 281.790482243984 L 684 286 L 694.1626748576241 290.209517756016" fill="#000000" paint-order="stroke fill markers" stroke="none"/></g><g><path d=" M 694.1626748576241 281.790482243984 L 684 286 L 694.1626748576241 290.209517756016 L 694.1626748576241 281.790482243984" fill="none" paint-order="fill stroke markers" stroke="#000000" stroke-dasharray="" stroke-miterlimit="10"/></g><g><rect fill="#ffffff" height="13" stroke="none" transform="matrix(1 0 0 1 -30 2)" width="285.2509765625" x="720" y="240"/></g><g><g><path fill="none" stroke="none"/><text dominant-baseline="central" fill="#000000" font-family="Arial" font-size="13px" font-style="normal" font-weight="normal" stroke="none" text-anchor="middle" text-decoration="undefined" transform="matrix(1 0 0 1 -30 2)" x="862.62548828125" y="246.5">4 : setTournamentStatus(tournamentID, "Closed")</text></g></g><g><rect fill="#ffffff" height="28" stroke="none" transform="matrix(1 0 0 1 -30 2)" width="14" x="700" y="284"/></g><g><path d=" M 670 286 L 684 286 L 684 314 L 670 314 L 670 286 Z Z" fill="none" paint-order="fill stroke markers" stroke="#000000" stroke-dasharray="" stroke-miterlimit="10"/></g><g><path d=" M 663 314 L 97 314" fill="none" paint-order="fill stroke markers" stroke="#000000" stroke-dasharray="3" stroke-miterlimit="10"/></g><g><path d=" M 107.16267485762415 309.790482243984 L 97 314 L 107.16267485762415 318.209517756016" fill="none" paint-order="fill stroke markers" stroke="#000000" stroke-dasharray="" stroke-miterlimit="10"/></g><g><rect fill="#ffffff" height="13" stroke="none" transform="matrix(1 0 0 1 -30 2)" width="129.33349609375" x="345" y="316"/></g><g><g><path fill="none" stroke="none"/><text dominant-baseline="central" fill="#000000" font-family="Arial" font-size="13px" font-style="normal" font-weight="normal" stroke="none" text-anchor="middle" text-decoration="undefined" transform="matrix(1 0 0 1 -30 2)" x="409.666748046875" y="322.5">5 : OK</text></g></g><g><path d=" M 671 418 L 701 418 L 701 438 L 677 438" fill="none" paint-order="fill stroke markers" stroke="#000000" stroke-dasharray="" stroke-miterlimit="10"/></g><g><path d=" M 687.1626748576241 433.790482243984 L 677 438 L 687.1626748576241 442.209517756016" fill="#000000" paint-order="stroke fill markers" stroke="none"/></g><g><path d=" M 687.1626748576241 433.790482243984 L 677 438 L 687.1626748576241 442.209517756016 L 687.1626748576241 433.790482243984" fill="none" paint-order="fill stroke markers" stroke="#000000" stroke-dasharray="" stroke-miterlimit="10"/></g><g><rect fill="#ffffff" height="13" stroke="none" transform="matrix(1 0 0 1 -30 2)" width="307.65185546875" x="704" y="392"/></g><g><g><path fill="none" stroke="none"/><text dominant-baseline="central" fill="#000000" font-family="Arial" font-size="13px" font-style="normal" font-weight="normal" stroke="none" text-anchor="middle" text-decoration="undefined" transform="matrix(1 0 0 1 -30 2)" x="857.825927734375" y="398.5">6 : setTournamentStatus(tournamentID, "Completed")</text></g></g><g><rect fill="#ffffff" height="28" stroke="none" transform="matrix(1 0 0 1 -30 2)" width="14" x="693" y="436"/></g><g><path d=" M 663 438 L 677 438 L 677 466 L 663 466 L 663 438 Z Z" fill="none" paint-order="fill stroke markers" stroke="#000000" stroke-dasharray="" stroke-miterlimit="10"/></g><g><path d=" M 66 354 L 994 354 L 994 498 L 66 498 L 66 354" fill="none" paint-order="fill stroke markers" stroke="#000000" stroke-dasharray="" stroke-miterlimit="10"/></g><g><path d=" M 66 354 L 66 377 L 235.92431640625 377 L 247.42431640625 365.5 L 247.42431640625 354 L 66 354" fill="#ffffff" paint-order="stroke fill markers" stroke="none"/></g><g><path d=" M 66 354 L 66 377 L 235.92431640625 377 L 247.42431640625 365.5 L 247.42431640625 354 L 66 354 L 66 354" fill="none" paint-order="fill stroke markers" stroke="#000000" stroke-dasharray="" stroke-miterlimit="10"/></g><g><g><path fill="none" stroke="none"/><text dominant-baseline="central" fill="#000000" font-family="Arial" font-size="13px" font-style="normal" font-weight="normal" stroke="none" text-anchor="middle" text-decoration="undefined" transform="matrix(1 0 0 1 -30 2)" x="201.66259765625" y="363.5">All battles are ended</text></g></g><g><g><path fill="none" stroke="none"/><text dominant-baseline="central" fill="#000000" font-family="Arial" font-size="13px" font-style="normal" font-weight="bold" stroke="none" text-anchor="middle" text-decoration="undefined" transform="matrix(1 0 0 1 -30 2)" x="118.700439453125" y="363.5">assert</text></g></g></g></svg>