<?xml version="1.0" encoding="UTF-8" standalone="no"?><svg xmlns="http://www.w3.org/2000/svg" xmlns:xlink="http://www.w3.org/1999/xlink" height="524" version="1.1" width="772"><defs/><g><g><path d=" M 10 10 L 762 10 L 762 514 L 10 514 L 10 10" fill="none" paint-order="fill stroke markers" stroke="#000000" stroke-dasharray="" stroke-miterlimit="10"/></g><g><path d=" M 10 10 L 10 33 L 235.5615234375 33 L 247.0615234375 21.5 L 247.0615234375 10 L 10 10" fill="#ffffff" paint-order="stroke fill markers" stroke="none"/></g><g><path d=" M 10 10 L 10 33 L 235.5615234375 33 L 247.0615234375 21.5 L 247.0615234375 10 L 10 10 L 10 10" fill="none" paint-order="fill stroke markers" stroke="#000000" stroke-dasharray="" stroke-miterlimit="10"/></g><g><g><path fill="none" stroke="none"/><text dominant-baseline="central" fill="#000000" font-family="Arial" font-size="13px" font-style="normal" font-weight="normal" stroke="none" text-anchor="middle" text-decoration="undefined" transform="matrix(1 0 0 1 -22 2)" x="154.645751953125" y="19.5">[UC6]  Student joins a tournament</text></g></g><g><g><path fill="none" stroke="none"/><text dominant-baseline="central" fill="#000000" font-family="Arial" font-size="13px" font-style="normal" font-weight="bold" stroke="none" text-anchor="middle" text-decoration="undefined" transform="matrix(1 0 0 1 -22 2)" x="43.864990234375" y="19.5">sd</text></g></g><g><rect fill="#C0C0C0" fill-opacity="0.2" height="40" stroke="none" transform="matrix(1 0 0 1 -22 2)" width="76.341796875" x="95" y="47"/></g><g><rect fill="#ffffff" height="40" stroke="none" transform="matrix(1 0 0 1 -22 2)" width="76.341796875" x="88" y="40"/></g><g><path d=" M 66 42 L 142.341796875 42 L 142.341796875 82 L 66 82 L 66 42 Z Z" fill="none" paint-order="fill stroke markers" stroke="#000000" stroke-dasharray="" stroke-miterlimit="10"/></g><g><g><path fill="none" stroke="none"/><text dominant-baseline="central" fill="#000000" font-family="Arial" font-size="13px" font-style="normal" font-weight="bold" stroke="none" text-anchor="middle" text-decoration="undefined" transform="matrix(1 0 0 1 -22 2)" x="126.6708984375" y="53.5">Student</text></g></g><g><path d=" M 104.5 83 L 104.5 482" fill="none" paint-order="fill stroke markers" stroke="#000000" stroke-dasharray="3" stroke-miterlimit="10"/></g><g><rect fill="#C0C0C0" fill-opacity="0.2" height="40" stroke="none" transform="matrix(1 0 0 1 -22 2)" width="72.736328125" x="671" y="47"/></g><g><rect fill="#ffffff" height="40" stroke="none" transform="matrix(1 0 0 1 -22 2)" width="72.736328125" x="664" y="40"/></g><g><path d=" M 642 42 L 714.736328125 42 L 714.736328125 82 L 642 82 L 642 42 Z Z" fill="none" paint-order="fill stroke markers" stroke="#000000" stroke-dasharray="" stroke-miterlimit="10"/></g><g><g><path fill="none" stroke="none"/><text dominant-baseline="central" fill="#000000" font-family="Arial" font-size="13px" font-style="normal" font-weight="bold" stroke="none" text-anchor="middle" text-decoration="undefined" transform="matrix(1 0 0 1 -22 2)" x="700.8681640625" y="53.5">System</text></g></g><g><path d=" M 678.5 83 L 678.5 482" fill="none" paint-order="fill stroke markers" stroke="#000000" stroke-dasharray="3" stroke-miterlimit="10"/></g><g><path d=" M 34 98 L 255 98 L 265 108 L 265 122 L 34 122 L 34 98" fill="#C39898" paint-order="stroke fill markers" stroke="none"/></g><g><path d=" M 34 98 L 255 98 L 265 108 L 265 122 L 34 122 L 34 98 L 34 98" fill="none" paint-order="fill stroke markers" stroke="#000000" stroke-dasharray="" stroke-miterlimit="10"/></g><g><path d=" M 255 98 L 255 108 L 265 108 L 255 98" fill="none" paint-order="fill stroke markers" stroke="#000000" stroke-dasharray="" stroke-miterlimit="10"/></g><g><g><path fill="none" stroke="none"/><text dominant-baseline="text-before-edge" fill="#000000" font-family="Arial" font-size="13px" font-style="normal" font-weight="normal" stroke="none" text-anchor="start" text-decoration="undefined" transform="matrix(1 0 0 1 -22 2)" x="61" y="101">The Student is logged in the system</text></g></g><g><path d=" M 105 170 L 671 170" fill="none" paint-order="fill stroke markers" stroke="#000000" stroke-dasharray="" stroke-miterlimit="10"/></g><g><path d=" M 660.8373251423759 174.209517756016 L 671 170 L 660.8373251423758 165.790482243984" fill="#000000" paint-order="stroke fill markers" stroke="none"/></g><g><path d=" M 660.8373251423759 174.209517756016 L 671 170 L 660.8373251423758 165.790482243984 L 660.8373251423759 174.209517756016" fill="none" paint-order="fill stroke markers" stroke="#000000" stroke-dasharray="" stroke-miterlimit="10"/></g><g><rect fill="#ffffff" height="13" stroke="none" transform="matrix(1 0 0 1 -22 2)" width="208.09521484375" x="306" y="152"/></g><g><g><path fill="none" stroke="none"/><text dominant-baseline="central" fill="#000000" font-family="Arial" font-size="13px" font-style="normal" font-weight="normal" stroke="none" text-anchor="middle" text-decoration="undefined" transform="matrix(1 0 0 1 -22 2)" x="410.047607421875" y="158.5">1 : selectTournament(tournamentID)</text></g></g><g><rect fill="#ffffff" height="28" stroke="none" transform="matrix(1 0 0 1 -22 2)" width="14" x="693" y="168"/></g><g><path d=" M 671 170 L 685 170 L 685 198 L 671 198 L 671 170 Z Z" fill="none" paint-order="fill stroke markers" stroke="#000000" stroke-dasharray="" stroke-miterlimit="10"/></g><g><path d=" M 678 210 L 105 210" fill="none" paint-order="fill stroke markers" stroke="#000000" stroke-dasharray="3" stroke-miterlimit="10"/></g><g><path d=" M 115.16267485762415 205.790482243984 L 105 210 L 115.16267485762415 214.209517756016" fill="none" paint-order="fill stroke markers" stroke="#000000" stroke-dasharray="" stroke-miterlimit="10"/></g><g><rect fill="#ffffff" height="13" stroke="none" transform="matrix(1 0 0 1 -22 2)" width="202.2998046875" x="311" y="212"/></g><g><g><path fill="none" stroke="none"/><text dominant-baseline="central" fill="#000000" font-family="Arial" font-size="13px" font-style="normal" font-weight="normal" stroke="none" text-anchor="middle" text-decoration="undefined" transform="matrix(1 0 0 1 -22 2)" x="412.14990234375" y="218.5">2 : show(tournamentScreen)</text></g></g><g><path d=" M 678 330 L 105 330" fill="none" paint-order="fill stroke markers" stroke="#000000" stroke-dasharray="3" stroke-miterlimit="10"/></g><g><path d=" M 115.16267485762415 325.790482243984 L 105 330 L 115.16267485762415 334.209517756016" fill="none" paint-order="fill stroke markers" stroke="#000000" stroke-dasharray="" stroke-miterlimit="10"/></g><g><rect fill="#ffffff" height="13" stroke="none" transform="matrix(1 0 0 1 -22 2)" width="150.29345703125" x="337" y="332"/></g><g><g><path fill="none" stroke="none"/><text dominant-baseline="central" fill="#000000" font-family="Arial" font-size="13px" font-style="normal" font-weight="normal" stroke="none" text-anchor="middle" text-decoration="undefined" transform="matrix(1 0 0 1 -22 2)" x="412.146728515625" y="338.5">3 : show(subscribeButton)</text></g></g><g><path d=" M 105 394 L 671 394" fill="none" paint-order="fill stroke markers" stroke="#000000" stroke-dasharray="" stroke-miterlimit="10"/></g><g><path d=" M 660.8373251423759 398.209517756016 L 671 394 L 660.8373251423758 389.790482243984" fill="#000000" paint-order="stroke fill markers" stroke="none"/></g><g><path d=" M 660.8373251423759 398.209517756016 L 671 394 L 660.8373251423758 389.790482243984 L 660.8373251423759 398.209517756016" fill="none" paint-order="fill stroke markers" stroke="#000000" stroke-dasharray="" stroke-miterlimit="10"/></g><g><rect fill="#ffffff" height="13" stroke="none" transform="matrix(1 0 0 1 -22 2)" width="223.98974609375" x="299" y="376"/></g><g><g><path fill="none" stroke="none"/><text dominant-baseline="central" fill="#000000" font-family="Arial" font-size="13px" font-style="normal" font-weight="normal" stroke="none" text-anchor="middle" text-decoration="undefined" transform="matrix(1 0 0 1 -22 2)" x="410.994873046875" y="382.5">4 : subscribe(studentID, tournamentID)</text></g></g><g><rect fill="#ffffff" height="28" stroke="none" transform="matrix(1 0 0 1 -22 2)" width="14" x="693" y="392"/></g><g><path d=" M 671 394 L 685 394 L 685 422 L 671 422 L 671 394 Z Z" fill="none" paint-order="fill stroke markers" stroke="#000000" stroke-dasharray="" stroke-miterlimit="10"/></g><g><path d=" M 678 434 L 105 434" fill="none" paint-order="fill stroke markers" stroke="#000000" stroke-dasharray="3" stroke-miterlimit="10"/></g><g><path d=" M 115.16267485762415 429.790482243984 L 105 434 L 115.16267485762415 438.209517756016" fill="none" paint-order="fill stroke markers" stroke="#000000" stroke-dasharray="" stroke-miterlimit="10"/></g><g><rect fill="#ffffff" height="13" stroke="none" transform="matrix(1 0 0 1 -22 2)" width="145.2216796875" x="340" y="436"/></g><g><g><path fill="none" stroke="none"/><text dominant-baseline="central" fill="#000000" font-family="Arial" font-size="13px" font-style="normal" font-weight="normal" stroke="none" text-anchor="middle" text-decoration="undefined" transform="matrix(1 0 0 1 -22 2)" x="412.61083984375" y="442.5">5 : show(successScreen)</text></g></g><g><path d=" M 34 266 L 746 266 L 746 490 L 34 490 L 34 266" fill="none" paint-order="fill stroke markers" stroke="#000000" stroke-dasharray="" stroke-miterlimit="10"/></g><g><path d=" M 34 266 L 34 289 L 274.73876953125 289 L 286.23876953125 277.5 L 286.23876953125 266 L 34 266" fill="#ffffff" paint-order="stroke fill markers" stroke="none"/></g><g><path d=" M 34 266 L 34 289 L 274.73876953125 289 L 286.23876953125 277.5 L 286.23876953125 266 L 34 266 L 34 266" fill="none" paint-order="fill stroke markers" stroke="#000000" stroke-dasharray="" stroke-miterlimit="10"/></g><g><g><path fill="none" stroke="none"/><text dominant-baseline="central" fill="#000000" font-family="Arial" font-size="13px" font-style="normal" font-weight="normal" stroke="none" text-anchor="middle" text-decoration="undefined" transform="matrix(1 0 0 1 -22 2)" x="186.234375" y="275.5">Student is subscribed to Tournament</text></g></g><g><g><path fill="none" stroke="none"/><text dominant-baseline="central" fill="#000000" font-family="Arial" font-size="13px" font-style="normal" font-weight="bold" stroke="none" text-anchor="middle" text-decoration="undefined" transform="matrix(1 0 0 1 -22 2)" x="67.864990234375" y="275.5">alt</text></g></g><g><g><path fill="none" stroke="none"/><text dominant-baseline="central" fill="#000000" font-family="Arial" font-size="13px" font-style="normal" font-weight="normal" stroke="none" text-anchor="middle" text-decoration="undefined" transform="matrix(1 0 0 1 -22 2)" x="93.341796875" y="308.5">[false]</text></g></g></g></svg>